<?xml version="1.0" encoding="utf-8"?>
<!-- Generator: Adobe Illustrator 23.0.1, SVG Export Plug-In . SVG Version: 6.00 Build 0)  -->
<svg version="1.1" id="Layer_1" xmlns="http://www.w3.org/2000/svg" xmlns:xlink="http://www.w3.org/1999/xlink" x="0px" y="0px"
	 viewBox="0 0 307.6 436.6" style="enable-background:new 0 0 307.6 436.6;" xml:space="preserve">
<style type="text/css">
	.st0{fill:#ACE0F3;}
	.st1{fill:#8DD6E9;}
	.st2{fill:#4CBBCE;}
	.st3{fill:#129BAA;}
	.st4{fill:#A55B26;}
	.st5{fill:#89481F;}
	.st6{fill:#552B14;}
	.st7{fill:#F37A75;}
	.st8{fill:#BD4243;}
	.st9{fill:#E6E6E6;}
	.st10{fill:#D1D3D4;}
	.st11{fill:#939598;}
	.st12{fill:#F8BF3F;}
	.st13{fill:#E09F26;}
	.st14{fill:#22C1E0;}
	.st15{fill:#0F9EB2;}
	.st16{fill:#238696;}
	.st17{fill:#043E44;}
	.st18{fill:#231F20;}
	.st19{clip-path:url(#SVGID_2_);}
	.st20{fill:#21C1E0;}
	.st21{clip-path:url(#SVGID_4_);}
	.st22{clip-path:url(#SVGID_6_);}
	.st23{clip-path:url(#SVGID_8_);}
	.st24{clip-path:url(#SVGID_10_);}
	.st25{clip-path:url(#SVGID_12_);}
	.st26{clip-path:url(#SVGID_14_);}
	.st27{clip-path:url(#SVGID_16_);}
	.st28{clip-path:url(#SVGID_18_);}
	.st29{clip-path:url(#SVGID_20_);}
</style>
<title>Asset 1</title>
<g>
	<g id="Layer_1-2">
		<path class="st0" d="M251.9,301.2c-4.5,59.6-56.4,104.3-116,99.8c-33.7-2.5-64.2-20.6-82.6-48.9c-10.1-15.5-16-33.3-17.2-51.7
			c0.2,0.2,0.5,0.3,0.8,0.4c0.6,0.2,1.1,0.3,1.7,0.4l0,0c8.3,1.2,16.5,2.4,24.8,3.4c2,0.2,3.9,0.5,5.8,0.7l0.4,0
			c1.8,0.2,3.6,0.4,5.4,0.6l3.2,0.4l0.8,0.1l1.1,0.1l0.9,0.1c2.8,0.3,5.6,0.6,8.5,0.8c3.7,0.4,7.4,0.7,11.2,1l3,0.2
			c7.4,0.6,14.8,1.1,22.2,1.5c4,0.2,8,0.4,12,0.6c3.8,0.1,7.6,0.1,11.2-1.1c1.1,2.1,2.5,4,4.1,5.7c0.8,0.9,2.2,3.3,3.7,2.9
			c1.5-0.4,3-2.5,3.9-3.7c1.2-1.5,2.1-3.2,2.8-5c0,0,0.1,0.1,0.1,0.1c4,0,8-0.1,12-0.2c0.6,0,1.2,0,1.8-0.1l3.6-0.1l1.9-0.1
			c7.7-0.4,15.3-0.9,23-1.6c0.6-0.1,1.2-0.1,1.8-0.2c0.3,0,0.7-0.1,1-0.1l1.5-0.1l3-0.3h0.1c1.7-0.2,3.4-0.4,5.2-0.6
			c0.2,0,0.3,0,0.5-0.1l2.1-0.2c2.4-0.3,4.8-0.6,7.2-0.9c4.2-0.6,8.3-1.2,12.4-1.9c3.3-0.6,6.6-1.1,9.8-1.7c0.1,0,0.1,0,0.1-0.1
			c0.3,0,0.5,0,0.8,0C251.5,301.2,251.7,301.2,251.9,301.2z"/>
		<path class="st1" d="M251.9,304.3c0,0.7,0,1.5,0,2.2c0,0,0,0.1,0,0.1l-0.6,4.2c0,0.1,0,0.1,0,0.2c-0.2,0.9-0.4,1.7-0.6,2.6
			c-0.4,1.7-0.9,3.3-1.3,4.7c-0.2,1.3-0.4,2.6-0.7,3.9c-1.1,4.4-2.6,8.7-4.6,12.9c-0.5,1-1,2.1-1.5,3.1c-0.1,0.2-0.2,0.4-0.3,0.6
			c0,0.3-0.1,0.5-0.2,0.8c-0.6,2.5-2.4,5.1-3.9,7.4c-0.4,0.6-0.8,1.2-1.1,1.7c-0.7,1.2-1.5,2.5-2.3,3.7c-0.2,0.2-0.3,0.5-0.5,0.7
			c-1.6,2.3-3.2,4.6-4.9,6.8c0,0.1-0.1,0.1-0.1,0.1c-0.2,0.3-0.4,0.7-0.6,1l-0.1,0.2c-0.3,0.4-0.5,0.8-0.8,1.2
			c-2.1,2.8-4.5,5.4-7,7.8c-1.1,1.1-2.2,2.1-3.3,3.2c0,0-0.1,0.1-0.1,0.1c-0.8,0.8-1.8,1.6-2.7,2.3c-1.1,1-2.3,1.9-3.6,2.7
			c0,0-0.1,0-0.1,0.1l0,0l0,0c0,0.1,0,0.2-0.1,0.2l-0.1,0.1c-0.1,0.1-0.1,0.1-0.2,0.1c-0.3,0.3-0.7,0.6-1.1,0.8l-0.6,0.4
			c-0.2,0.3-0.5,0.5-0.7,0.7c-1,0.8-2,1.5-3,2.2c-2,1.4-4.2,2.7-6.3,3.9c-4.4,2.5-8.9,4.7-13.4,6.8c-0.1,0.1-0.3,0-0.4,0.1
			c0,0-0.1,0.1-0.2,0.1l0,0c-0.1,0-0.2,0-0.2-0.1l0,0c-6.5,2.6-13,4.1-19.7,5.9l-1,0.3c-0.1,0-0.2,0-0.3,0c-0.1,0-0.1-0.1-0.1-0.1
			l-0.4,0.2c-0.2,0.1-0.3,0.1-0.5,0.2l-0.5,0.1c0-0.1-0.1-0.1,0-0.1c0,0,0-0.1,0.1-0.1l0.6-0.4l0,0c16-9.3,28.8-22.9,38.6-38.5
			c10.4-16.4,19.5-35,20.2-54.7v-0.4c0-0.1,0-0.2,0.1-0.3c0-0.1,0.1-0.2,0.1-0.2l0,0l0,0c0-0.2,0.4-0.2,0.5,0l0.5-0.1l0.4-0.1
			c1.1-0.2,2.2-0.2,3.3-0.4c4.8-0.7,9.5-1.4,14.3-2.1c1.7-0.2,3.3-0.6,4.9-0.8c0.2,0,0.5-0.1,0.7-0.1l3.8-0.6h0.1c0,0,0-0.1,0-0.1
			c0,0,0-0.1,0.1-0.1c0,0,0.1,0,0.1,0h0h0c0.2-0.1,0.4-0.1,0.6,0c0.2-0.1,0.5-0.1,0.7-0.1l0,0l0.1,0.1c0.1,0,0,0.1,0,0.2
			c0,0.1,0,0.1,0,0.2c0,0,0.1,0.1,0,0.2c0,0.3-0.1,0.6-0.2,0.9c0,0.1,0.1,0.2,0.1,0.3C252,303.4,252,303.9,251.9,304.3z"/>
		<path class="st2" d="M251.9,300.7c0,0.2-0.1,0.3-0.3,0.3c0,0,0,0-0.1,0l-0.7-0.2c-0.1,0.1-0.2,0.2-0.3,0.3c-0.1,0-0.2,0-0.3,0
			l-0.2,0c0,0.2-0.2,0.3-0.4,0.4c-2.9,0.7-5.9,0.6-8.8,1.3c-0.1,0.1-0.1,0.2-0.3,0.3c-4.2,0.7-8.3,1.3-12.4,1.9
			c-5,0.6-10,1.1-14.9,1.8h0c-1.5,0.2-3,0.3-4.5,0.5c-0.1,0-0.2-0.1-0.3-0.2h-0.1c-0.2,0.1-0.4,0.2-0.7,0.3
			c-0.6,0.1-1.2,0.1-1.8,0.2c-0.3-0.1-0.5-0.3-0.6-0.5c-0.5,0.1-1,0.2-1.6,0.3c-5.4,0.9-10.7,1-16.2,1.5c-0.2,0-0.4-0.1-0.5-0.3
			c-1.4,0.2-2.8,0.4-4.2,0.6l-1.9,0.1c-0.2-0.1-0.3-0.3-0.4-0.5c-0.3,0.3-0.8,0.3-1.2,0c-0.4-0.3-0.5-0.9-0.2-1.3
			c0,0,0.1-0.1,0.1-0.1c1.4-1.5-0.2-6.9-0.3-8.6s-0.8-3.8-0.4-5.5c0,0,0,0-0.1-0.1c-0.4,0-0.7-0.3-0.8-0.6c-0.1-0.4,0.1-0.8,0.4-1
			c0.1,0,0.1-0.1,0.2-0.1c0.3-0.1,0.5,0,0.8,0.1h0.1c7.1,0.1,14.2,0.6,21.2,1.6c0.1-0.2,0.3-0.4,0.5-0.4c2.3,0.3,4.7,0.7,7,1
			c1.6,0.2,3.2,0.2,4.7,0.5c0.8,0.1,1.5,0.2,2.3,0.4c4.3,0.3,8.6,1,12.9,1.5c1.1,0.1,2.4,0.2,3.6,0.3h0.1l1.7,0.2h0.1
			c0.7,0.1,1.5,0.3,2.2,0.6c0.1-0.1,0.3-0.1,0.4,0c0,0,0.1,0,0.1,0.1c0-0.1,0.1-0.1,0.2-0.1c0.6,0.1,1.1,0.2,1.7,0.3
			c0.5-0.1,1.1-0.2,1.7-0.1l1.1,0.1c0.9,0.2,1.8,0.4,2.6,0.6c2.5,0.4,4.9,1.2,7.4,1.8c0.1,0,0.3,0.1,0.3,0.2l0.8,0.2
			C252,300.4,252.1,300.5,251.9,300.7C252,300.7,252,300.7,251.9,300.7z"/>
		<path class="st2" d="M103.1,308.3c-13.2-1-26.3-2.3-39.5-3.9c-8.3-1-16.6-2.2-24.9-3.4l0,0c-0.5-0.1-1-0.2-1.5-0.3
			c-0.4-0.2-0.7-0.3-1.1-0.5c0-0.1,0-0.1,0-0.2c0.4-0.2,0.8-0.3,1.2-0.3c0.3,0,0.7,0,1-0.2c0,0,0.1,0,0.1,0
			c11.9-1.8,23.8-3.6,35.8-4.8c0.2,0.9,0.7,1.7,1.4,2.3c0.5,0.5,1,0.9,1.5,1.5c0.1,0.2,0.3,0.6,0.6,0.6c0.6,0,1-0.9,1.3-1.3
			c0.8-1.2,1.3-2.9,2.4-3.9c0,0,0-0.1,0.1-0.1c5.7-0.6,11.4-1.1,17.1-1.4C99.5,297.7,101,303.1,103.1,308.3
			C103.1,308.2,103.1,308.3,103.1,308.3z"/>
		<path class="st3" d="M218.9,306.1l-1-0.3c0.1,0.1,0,0.2,0.1,0.2c0.1,0,0.2,0.1,0.3,0.2c-1.7,0.2-3.5,0.4-5.2,0.6h0l-3,0.3
			c-4.9,0.1-9.7,0.6-14.7,1c-3.8,0.3-7.6,0.5-11.5,0.7c-1.3,0-3.3,0.5-4.7,0c-0.1,0-0.3-0.1-0.4-0.2l-0.2,0.2l0,0
			c-0.3,0.2-0.7,0.3-1,0.1c0,0,0,0,0,0.1c0,0.1-0.1,0.3-0.2,0.4l0,0c-0.6,0-1.2,0-1.8,0.1c-0.1-0.2-0.1-0.3,0-0.5
			c0-0.1,0.1-0.2,0.2-0.3c0.1-0.1,0.2-0.2,0.3-0.2c0-0.1,0-0.1,0.1-0.2c-0.5-0.5-0.6-1.4-0.1-2c-0.5-0.5-0.4-1.2,0.1-1.7
			c0.2-0.2,0.4-0.3,0.6-0.3c-0.1-0.6,0-1.2,0.2-1.8c-0.4-0.2-0.5-0.7-0.3-1.1c0.1-0.1,0.2-0.2,0.3-0.3l-0.6-0.1
			c-0.3,0-0.2-0.5,0.1-0.5c9-0.2,18.5,0.8,27.5,1.7c4.2,0.3,8.4,0.9,12.5,1.8c1.3,0.3,2.6,0.7,3.8,1.4c0.3,0.1,0.5,0.3,0.7,0.5
			L218.9,306.1z"/>
		<path class="st3" d="M104.7,301.2c-0.8,0-1.6,0-2.3,0c0.3,0,0.6,0.1,0.9,0.1c0.9,0.2,0.5,1.5-0.4,1.3c-0.5-0.1-1-0.1-1.5-0.2h-0.2
			h-0.1c0.1,0.1,0.1,0.2,0.2,0.4l0,0c0.2,0.5,0.5,1.1,0.6,1.7c0.1,0.3,0.2,0.6,0.3,0.9l0,0c0.1,0.5,0.3,1,0.5,1.5
			c0.2,0.3,0.3,0.6,0.5,0.8l0,0l0.2,0.3l0,0c0,0,0,0.1,0.1,0.1c0,0.1,0,0.1,0.1,0.2c0,0,0,0.1,0,0.1c0,0,0,0.1,0,0.1l-3-0.2
			c-0.1,0-0.1-0.1-0.2-0.2c-0.1,0-0.1-0.1-0.2-0.1c-2.9,0-5.4-0.5-8.3-0.6l-2.5-0.1c-2.8-0.3-5.6-0.6-8.5-0.8l-0.8,0
			c-0.3-0.1-0.6-0.1-1-0.1h-0.1l-0.8-0.1c0,0-0.1-0.1-0.1-0.2c-0.8,0-1.7-0.1-2.5-0.2l-0.6,0c-1.8-0.2-3.6-0.4-5.4-0.6v-0.1
			c-0.2,0-0.4-0.2-0.6-0.2l0.2,0.2c-2-0.2-3.9-0.5-5.8-0.7c0.2-0.1,0.5-0.1,0.7-0.2l0,0c3-0.8,6.3-1,9.3-1.5c3-0.4,6.3-0.9,9.4-1.3
			c5.6-0.7,11.6-1.7,17.3-1.7h0.5c1.3,0,2.7,0.1,4,0.2c0.3,0,0.5,0.2,0.5,0.5C105.2,301,105,301.2,104.7,301.2z"/>
		<path class="st4" d="M122.4,227c-0.4,0.3-0.8,0.6-1.2,1c-2.9,2.4-5.7,5.1-8.2,7.9c-4.9,5.5-8.7,11.8-11.4,18.6 M101.6,254.5
			L101.6,254.5c0,0.1,0,0.2,0.1,0.2c0,0,0.1,0,0.1,0c0.5-0.3,1-0.6,1.4-0.9c-3.2,6.4-5.2,13.4-5.7,20.6c-1.1-0.1-2.2-0.3-3.3-0.7
			c-1.1-0.2-2.2-0.6-3.2-1.2c1.5-2.3,3.5-4.5,4.4-7c0-0.1-0.1-0.1-0.1,0c-1.3,2.5-2.9,4.9-4.8,7.1h-0.1c-2.8-0.8-5.8-1.7-8.2-3.3
			c3.1-2,6.1-4.4,8.7-7c0,0,0-0.1,0-0.1c0,0-0.1,0-0.1,0l0,0c-2.7,2.6-5.7,5-9,7.1c-3.5-1.7-7.3-3.6-10.2-6.1
			c2.5-0.4,4.9-1.1,7.3-1.9c2.6-0.8,5-1.9,7.4-3.3c0.1-0.1,0-0.2-0.1-0.2c-4.6,2.2-9.7,4.6-14.9,5.1c-3.5,0.3-3.5,0.3,0,0
			c-5.5-3.9-9.7-8.8-14-13.9c6.8,1.6,13.8,2.6,20.8,2c0,0,0.1,0,0.1-0.1c0.5,0.1,1.1-0.3,1.2-0.8c0.1-0.5-0.3-1.1-0.8-1.2
			c-0.1,0-0.2,0-0.3,0c0,0-0.1,0-0.1,0c-8.1-0.2-16.2-1.7-23.9-4.3c0,0,0-0.1,0-0.1c-2-3.3-3.8-6.8-5.2-10.4
			c-1.3-3.4-2.3-7-3.4-10.5c7.1,6.4,15.6,11,24.8,13.5l0,0c0.5,0.3,1.1,0.2,1.4-0.3c0,0,0.1-0.1,0.1-0.1c0.2-0.4,0-1-0.4-1.2
			c0,0,0-0.1-0.1-0.1c-5-2-9.8-4-14.4-7c-4.5-3-8.7-6.6-12.4-10.6h0c-0.8-7.3-0.6-14.6,0.5-21.8c4.9,7.7,11.4,14.3,19.1,19.4l0,0
			c0.7,0.7,1.8,0.7,2.5,0.1c0.6-0.5,0.6-1.5,0.1-2.1c-0.1-0.1-0.2-0.2-0.4-0.3l0,0c-4.1-2.9-7.9-6.3-11.2-10.1
			c-3.3-3.9-6.2-8.1-8.9-12.5c2.1-8.4,6.8-15.7,11.6-22.7c9.4,21.4,26.2,39.4,46.4,51c5.7,3.2,11.6,6,17.8,8.2L101.6,254.5z"/>
		<path class="st4" d="M271.4,231.8c-0.5,5-1.5,9.9-2.9,14.7c0,0,0,0.1,0,0.1c-10,7-22.6,9.6-34.6,7c-0.1-0.1-0.3-0.1-0.5-0.1h-0.2
			c-0.1,0-0.1,0-0.1,0c-0.5,0-1,0.4-1.2,0.8c-0.2,0.6-0.1,1.3,0.4,1.8c0,0,0,0.1,0.1,0.1h0.1c0.2,0.2,0.4,0.3,0.6,0.3
			c0,0,0.1,0,0.1,0c5.3,2,11.4,1.8,16.9,1c5.8-0.7,11.4-2.7,16.4-5.8c-2.2,4.6-4.8,9-7.7,13.2c-3.4,4.4-7.1,8.6-11.2,12.4
			c0,0-0.1,0-0.1,0c-9,0.1-17.8-2.8-25.1-8.2l0,0c-0.4-1-1.9-0.6-2.4,0c-0.3,0.4-0.4,0.8-0.3,1.2c0,0.2,0.1,0.3,0.2,0.5
			c0.1,0.1,0.1,0.1,0.2,0.2l0.1,0.1l0,0l0,0c0,0,0,0.1,0,0c4.9,5.4,12,8.8,19,10.1c-1,0.5-2,0.9-3.1,1.1c-1,0.4-2.1,0.7-3.1,1
			c-2.1,0.6-4.2,1.2-6.3,1.7c-2,0.5-4.1,0.9-6.1,1.3c-2.2,0.4-4.5,0.5-6.7,1.1l0,0c-2.7-3.5-4.7-7.5-6-11.7c0-0.1-0.1-0.1-0.1-0.1
			c-0.1,0-0.1,0.1-0.1,0.1c1.2,4,3.1,7.8,5.6,11.2c-5.1,1.3-10.7,0.7-15.9,0.9c-1.1-3.3-2-6.7-2.5-10.1c0-0.1-0.2-0.1-0.2,0
			c0.4,3.2,1.1,6.4,2.2,9.5c-0.1,0-0.1,0-0.2,0c-1.1,1-4.4,0.2-5.8,0.1c-1.9-0.2-3.8-0.5-5.8-0.8c0-0.1,0-0.1-0.1-0.1
			c-0.8-0.5-1.1-1.7-1.5-2.5c-0.5-1-0.9-2.1-1.3-3.2c-0.7-1.8-1.3-3.6-1.8-5.4c0,0,0-0.1,0-0.1c0,0-0.1,0-0.1,0c0,0,0,0,0,0
			c0.6,2.3,1.3,4.6,2.2,6.9c0.4,1.1,0.9,2.9,1.7,3.9c-1.2,0.6-3.3-0.2-4.5-0.4c-1.3-0.3-2.7-0.6-4-0.9c-0.5-1.4-1.2-2.9-1.8-4.3
			c-1.5-3.3-4.2-7.6-2.1-11.1c0.1-0.1-0.1-0.2-0.2-0.1c-1.5,2.3-0.8,5.1,0.2,7.5c1.4,3.5,3.1,6.8,4.3,10.3c0.5,1.5,0.9,3,1.3,4.5
			c0,0-0.1,0.1-0.1,0.1c0,0,0,0,0.1,0.1l0,0c1.4,5.6,1.9,11.3,1.7,17.1l0,0c-5.3,0.2-10.5,0.4-15.8,0.5l0,0c0-0.1-0.2-0.2-0.3-0.2
			c-0.1,0-0.1,0.1-0.2,0.2c-0.6,1.6-1.4,3.1-2.3,4.5c-0.9,1.3-2.6,3.5-4.3,3.8c-0.9,0.1-0.8,0-1.4-0.6c-0.3-0.3-0.6-0.6-0.8-0.9
			c-0.6-0.7-1.3-1.4-1.9-2.1c-1.1-1.4-2-2.9-3.2-4.3c0.1-0.1,0.1-0.2,0-0.3c-0.1-0.1-0.2-0.1-0.2-0.1c-3.4,1.1-6.9,1.2-10.4,1.1
			c-3.5-0.1-7.1-0.3-10.6-0.5c-7.2-0.4-14.4-0.8-21.7-1.3c-0.9-0.1-1.8-0.1-2.8-0.2c0-0.1,0-0.1,0-0.2c-7-17.4-8.2-37.1,0-54.2
			c0-0.1,0-0.1-0.1-0.2c0.8-0.5,1.6-0.9,2.5-1.2c1.1-0.4,2.2-0.6,3.3-1.1c0.8,2.9,1.7,5.8,3.8,8c0.1,0.1,0.2,0.1,0.2,0
			c0.1,0,0.1-0.1,0-0.2c1.1-2.8,2.6-5.8,5.1-7.6c0.7,3.4,2.1,6.6,4,9.4c0.1,0.2,0.4,0.1,0.3-0.1c0.5-1.1,0.9-2.3,1.5-3.4
			c0.7-1.2,1.4-2.3,2.3-3.3c0,0,0,0,0-0.1c1.7,3.6,4.2,6.7,7.4,9c0,0,0.1,0,0.1,0c0.1,0.1,0.2,0,0.2,0c0,0,0-0.1,0-0.1
			c0.2-2.7,0.8-5.3,1.9-7.7c0.7,1.2,1.4,2.3,2.3,3.3c1,1.4,2.2,2.6,3.6,3.6c0,0,0.1,0,0.1,0c0,0.1,0.1,0.2,0.2,0.2
			c0.1,0,0.1,0,0.2-0.1c2.7-4.8,4.9-10.8,4-16.3c2.1,0.8,4.8,1.9,6.2,3.8c0,0,0.1,0.1,0.1,0.1l0,0c0,0,0.1,0,0.1,0c0,0,0,0,0,0l0,0
			l0,0c0,0,0-0.1,0-0.1c0.2-2.6-0.2-5.2-1.1-7.6c2-1.3,5.2-1.2,7.5-1.1c0.1,0,0.2-0.1,0.2-0.2c0,0,0,0,0,0c0,0,0-0.1,0-0.1
			c-0.4-2.6-1.3-5.1-2.5-7.4c0.7-0.3,1.3-0.7,2-1l0.5-0.2c0,0,0.1,0.1,0.1,0.1c2.3,0.1,4.6,0.2,6.8,0.3h0.1
			c12.6,0.3,25.2-1.3,37.3-4.8c14.4-4.2,27.4-12,39.2-21.2c6.6-5.2,12.4-11.3,17.1-18.2c2.1,3.7,4.6,7.2,6.3,11.1
			c1.6,3.9,2.9,8,3.8,12.2c0,0.1,0.1,0.1,0.1,0.1c-6.1,10-16.1,17.1-27.5,19.8c-1.8,0.4-3.9,0.3-5.6,1c-0.8,0.2-1.4,1-1.3,1.9
			c0,0,0,0.1,0.1,0c0,0,0,0,0,0c0.3,1.9,5.6,0.8,6.6,0.7c4-0.5,7.9-1.6,11.6-3.2c6.7-2.8,13-7.5,17-13.6
			C272.1,222.6,271.8,227.4,271.4,231.8z"/>
		<path class="st4" d="M138,164.9c-2.7-1.7-7.3-0.6-9.6,1.2c0.3-0.9-0.3-2.2-0.7-3C131.1,161.6,136.6,160.1,138,164.9z"/>
		<path class="st4" d="M113.7,162.2c-0.2,0.9-0.4,1.8-0.4,2.8c-1.4-0.6-4.4-2.2-5.9-1.3C108,160.8,111.6,161.7,113.7,162.2z"/>
		<path class="st5" d="M159.3,241c-2.5,0.7-5.4,1.5-6.6,4.2c-0.1,0.2-0.4,0-0.4-0.2c0-0.2,0.1-0.4,0.2-0.6c-0.3-0.6-0.6-1.3-0.7-2
			c0,0,0,0-0.1-0.1c-0.1,0-0.1-0.1-0.1-0.1s0,0,0-0.1c0-0.1,0.1-0.2,0.2-0.2c0,0,0,0,0,0c0.1,0,0.2-0.1,0.2-0.1l0,0l0,0l0,0
			c0,0,0.1,0,0.1,0h0c0.4-0.2,0.8-0.4,1.3-0.5c0.8-0.2,1.6-0.3,2.4-0.4c0,0,0.1,0,0.1,0.1c0.5-0.1,1.1-0.1,1.7-0.2c0,0,0.1,0,0.1,0
			h0c0.1,0,0.1,0.1,0,0.1C158.3,241.1,158.8,241,159.3,241C159.3,241.1,159.4,241,159.3,241z"/>
		<path class="st5" d="M152.9,249.9c-2-0.8-4.1-1.7-6.3-1.7c-0.1,0-0.1-0.2,0-0.2h0.1c0,0,0-0.1,0-0.1c0-0.1,0-0.2,0-0.4
			c0-0.1,0-0.2-0.1-0.3c0,0,0-0.1,0-0.1h-0.1c-0.1,0-0.1,0-0.1-0.1c0-0.1,0-0.1,0.1-0.1h0.1c0-0.1,0-0.2,0-0.2l-0.1-0.4
			c0-0.1,0-0.1-0.1-0.2c-0.1-0.1,0.1-0.3,0.2-0.2l0.1,0.1c0.2,0,0.3,0.1,0.5,0.2l0.1,0.1h0.1l0.8,0.3c0.7,0.3,1.4,0.6,2.1,1
			c0.3,0.1,0.7,0.2,0.9,0.4c0.1,0.1,0.3,0.3,0.4,0.4c0.4,0.2,0.7,0.5,1.1,0.8c0.1,0.1-0.1,0.2-0.1,0.1l0,0h0l0.5,0.2
			C153,249.8,153,250,152.9,249.9z"/>
		<path class="st5" d="M137.3,257.1c0-0.1-0.1-0.1-0.1-0.2l0,0c-0.1-0.1-0.2-0.3-0.3-0.4l0,0c0,0,0-0.1,0-0.1s-0.1,0-0.1,0l0,0
			c0-0.1-0.1-0.1-0.1-0.2c-0.1-0.1-0.2-0.3-0.3-0.5c0-0.1,0-0.2-0.1-0.2c0-0.1-0.2-0.2-0.2-0.1c-0.1,0.1-0.1,0.2-0.1,0.2l0,0
			c-0.4,0.5-0.6,1.1-0.7,1.7c-0.3,0.9-0.6,1.7-0.8,2.6c0,0,0,0.1,0,0.1c0,0.1,0,0.3-0.1,0.4c0,0,0,0,0,0.1c-0.2,0.6-0.3,1.2-0.5,1.9
			c0,0.1,0,0.1,0.1,0.2c0,0,0.1,0,0.1,0c0,0.2-0.1,0.4-0.1,0.7c0,0,0.1,0,0.1,0c0.5-2.2,1.6-4.2,3.2-5.8c0.1,0,0.1-0.1,0.1-0.2
			S137.4,257.1,137.3,257.1z"/>
		<path class="st5" d="M127.9,256.5c-1.1,0.6-2.2,1.3-3.2,2.1c-0.8,0.7-1.5,1.6-2.1,2.5c0,0-0.1,0-0.1,0c0.1-0.3,0.3-0.7,0.5-1l0,0
			l-0.3,0.6l0,0c0.1-0.2,0.2-0.5,0.4-0.7c0.3-1.1,0.8-2.1,1.4-3.1c0.1-0.3,0.3-0.6,0.4-0.8c0.4-0.6,0.8-1.1,1.2-1.6l0.2-0.2
			c0,0,0.1-0.1,0.1-0.1c0,0,0.1-0.1,0.1,0c0,0,0,0,0,0c0,0,0.1,0.1,0.1,0.1c0,0,0,0.1,0,0.1c0.1,0.3,0.3,0.5,0.4,0.8l0.1,0.2
			c0,0,0,0.1,0,0.1h0.1c0.2,0,0.2,0.2,0.1,0.2l0,0l0.2,0.1c0.1,0.1,0.1,0.1,0.2,0.2l0,0c0.1,0,0.2,0.1,0.2,0.2
			C127.9,256.4,127.9,256.5,127.9,256.5z"/>
		<path class="st5" d="M118.8,253.3L118.8,253.3c0-0.1,0-0.3-0.1-0.4l0,0c0.2-0.1,0.1-0.3-0.1-0.3c0-0.2-0.1-0.4-0.2-0.6
			c0.1-0.1,0.1-0.3,0-0.4c0-0.1-0.1-0.2-0.2-0.2c0,0-0.1,0-0.1,0c-0.9,0.7-1.7,1.5-2.3,2.4c0,0.1-0.1,0.2-0.2,0.2
			c-0.3,0.4-0.6,0.8-0.8,1.2c-0.2,0.3-0.4,0.6-0.6,1c-0.3,0.5-0.6,1.1-0.7,1.7l-0.2,0.4c-0.2,0.3-0.3,0.5-0.5,0.8c0,0,0,0.1,0,0.1
			c0,0,0.1,0,0.1,0l0,0c1.6-2.1,3.1-4.8,5.8-5.6C119.2,253.7,119.1,253.3,118.8,253.3z"/>
		<path class="st5" d="M109.6,253c-2.6,0.4-5,1.4-7.1,2.9c0,0-0.1,0,0-0.1c0,0,0.3-0.2,0.4-0.3c-0.1,0-0.1-0.2-0.1-0.2c0,0,0,0,0,0
			c0.1-0.3,0.2-0.5,0.4-0.7c0.1-0.1,0.1-0.2,0.2-0.3c0-0.3,0.1-0.5,0.3-0.7c0.1-0.1,0.2-0.1,0.3-0.1l0,0c0.4-0.3,0.8-0.6,1.3-0.8
			c1.1-0.5,2.3-0.9,3.6-1.1l0.3-0.1c0.1,0,0.2,0,0.2,0.1c0,0,0,0,0,0c0,0,0,0.1,0,0.1l0,0c0.1,0.1,0.1,0.2,0.1,0.3c0,0,0,0.1,0,0.1
			c0,0.1,0,0.1,0.1,0.2h0c0.1,0,0.1,0.1,0.1,0.2c0,0,0,0.1,0,0.1c0.1,0,0.2,0.1,0.1,0.2C109.7,252.9,109.6,252.9,109.6,253z"/>
		<path class="st5" d="M203.4,227.7c-0.5,0.2-1.1,0.5-1.7,0.7l0,0c-6.7,2.8-13.9,4.8-20.9,6.7c-7.2,2-14.5,2.5-22,2.4
			c-0.1,0-0.3-0.1-0.3-0.3c0,0,0,0,0-0.1v-0.1c-0.4-1.2-0.8-2.4-1.4-3.5l-0.2-0.2c-0.2-0.2,0.1-0.4,0.3-0.3c0.2-0.2,0.5-0.4,0.8-0.5
			c0.4-0.2,0.8-0.4,1.3-0.6c0.1-0.1,0.2-0.1,0.3,0h0.1c0,0,0,0,0.1,0.1c0,0,0.1,0,0.1,0c0.8,0.1,1.5,0.1,2.3,0.2l0,0
			c1.1-0.1,2.2-0.1,3.3,0.1c0.5-0.1,1.1-0.1,1.6,0c0.2,0,0.8-0.1,1,0.1c1.7,0,3.4,0,5.1-0.1c0.1-0.1,0.1-0.1,0.2-0.1
			c2.5-0.1,5-0.3,7.5-0.6c1.7-0.2,3.7-0.7,5.3-0.4c0-0.1,0.1-0.1,0.1-0.1c4.1-0.6,8.5-1,12.4-2.4c0.1,0,0.2,0,0.2,0.1
			c0.3-0.1,0.5-0.2,0.8-0.2c0,0,0.1,0,0.1,0.1c1-0.4,2.1-0.7,3.1-1.2C203.4,227.3,203.6,227.6,203.4,227.7z"/>
		<path class="st5" d="M122.4,227.1c0,0.1,0,0.2-0.1,0.2c-1.1,0.7-1.9,1.6-2.9,2.4c-0.7,0.5-1.2,1.2-1.9,1.7c0.1,0.1,0,0.3-0.2,0.3
			c-9.1-3.4-13.7-12.5-21.2-18.1c-0.9-0.6-1.7-1.3-2.5-2l0,0c1.1,0.6,2,1.5,3.1,2.1c0,0,0,0,0,0.1c0.5,0.3,0.9,0.7,1.4,1
			c0,0,0,0,0.1,0c0,0,0,0,0,0c1,0.6,2,1.2,3,1.9c0.1-0.1,0.2-0.1,0.2,0c1,0.6,2,1.2,2.9,1.9c0.6,0.3,1.2,0.7,1.8,1c0,0,0,0,0.1,0.1
			c1.2,0.3,2.3,1.2,3.3,1.8c1.6,0.8,3.3,1.5,5,2.2c0,0,0.1,0,0.1,0.1c0.5,0.2,1.1,0.5,1.6,0.8c0.2,0.1,0.5,0.2,0.7,0.3
			c0.8,0.1,1.5,0.4,2.2,0.7c1.1,0.5,2.2,0.9,3.3,1.2C122.4,226.8,122.5,226.9,122.4,227.1C122.4,227.1,122.4,227.1,122.4,227.1z"/>
		<path class="st5" d="M179.7,308c0,0,0,0.1-0.1,0.1c0,0.1,0.1,0.3,0.1,0.4c0,0.4-0.3,0.6-0.7,0.6c-0.1,0-0.2-0.1-0.3-0.1h-0.1
			c-4.3,0.4-8.6,0.5-12.8,0.5c-0.8,0.1-1.6,0-2.3-0.2c0,0,0,0.1,0,0.1c0,0,0,0-0.1,0.1h-0.1c0,0,0,0-0.1,0c0,0.2,0,0.4-0.1,0.6
			c-0.3,1-0.7,2-1.3,2.8c-1.1,1.8-2.6,3.9-4.6,4.8l-0.2,0.1c-0.1,0-0.1,0.1-0.2,0.1c-1.4,0.4-3.1-2.2-3.8-3.1
			c-1.2-1.4-3.3-3.3-3.8-5.2c0,0,0-0.1,0-0.1c-1.3,0.5-2.7,0.8-4.2,0.9c-1.1,0.2-2.3,0.3-3.5,0.2c-0.1,0.1-0.3,0.1-0.4,0.1
			c-1.3,0.1-2.6,0-3.9-0.1c-0.6,0-1.2-0.1-1.8-0.3c-0.2,0.2-0.4,0.2-0.6,0.2c-2.3,0-4.6-0.1-7-0.3c-1.1-0.1-2,0-2.8-0.5
			c-0.2,0.1-0.5,0.2-0.7,0.1c-2.6-0.4-5.2-0.1-7.8-0.4c-0.6,0-1.2-0.1-1.8-0.3l0,0c-0.1,0-0.2,0.1-0.3,0c-3.2-0.2-6.6-0.8-9.8-0.6
			c-0.1,0-0.3,0-0.4-0.1h-0.1c-0.1,0-0.2,0-0.3-0.1c-0.1,0.1-0.3,0.1-0.4-0.1c0,0,0-0.1,0-0.1c0-0.1-0.1-0.3-0.1-0.4
			c-0.5-1-0.9-2-1.2-3c-0.4-0.9-0.7-1.9-0.9-2.9c-0.3-0.7-0.5-1.4-0.5-2.1c-0.1,0-0.3,0-0.4-0.1c-0.1-0.1-0.3-0.6,0.1-0.6l0,0
			c0,0,0-0.1,0-0.1c-0.1-0.2-0.1-0.4-0.2-0.7c0,0-0.1-0.1-0.1-0.1c0-0.1,0-0.2,0-0.2c0-0.1,0-0.1-0.1-0.1c0,0,0-0.1,0-0.2
			c0,0,0.1,0,0.1,0c-0.1-0.1-0.2-0.2-0.3-0.3l0,0c1.6,1,3.3,1.8,5.2,2.2c12.2,1.3,24.5,1.8,36.9,1.6c1.2-0.1,2.4,0,3.7,0.1
			c1.7,0.2,3.6,1.1,5.3,1.1c2.4-0.1,5.3-2.2,7.6-2.7c5.8-1.3,14.7,0.3,18.3-5.3c0.2-0.3,0.3-0.7,0.5-1c0.2-0.6,0.4-1.3,0.6-2
			 M178,291.6c0,0.3,0,0.6,0,0.8c0,0,0.1,0,0.1,0.1c0,0,0,0,0,0c0.1,0.6,0.3,1.2,0.4,1.9c0.2,0.2,0.3,0.4,0.3,0.7v0.1
			c0.3,0.8,0.4,1.7,0.4,2.6v0c0.1,0.2,0.2,0.5,0.1,0.7c0,0.1-0.1,0.1-0.2,0.1c0.2,0.7,0.3,1.5,0.3,2.2c0,1.7,0.1,3.3,0.1,4.9
			c0,0.3,0,0.7,0,1l0,0c0,0,0,0,0,0.1c0,0.1,0,0.2,0,0.3v0.7c0,0.1,0,0.1,0,0.2L178,291.6z"/>
		<path class="st5" d="M102.3,255.8c-1.2,1.6-2.3,3.4-3.2,5.2c-0.3,0.7-0.7,2.1-1.2,3.3c-0.2,0.3-0.4,0.6-0.6,0.9
			c-0.2,0.3-0.5,0.5-0.8,0.6c-0.2,0.1-0.4,0.1-0.6,0l-0.2-0.1c-0.2-0.1-0.2-0.2-0.3-0.1c0-0.1-0.1-0.2-0.2-0.1
			c-0.7,0.3-2.1-0.8-2.6-1.2c-0.6-0.6-1.1-1.2-1.6-1.9l0,0c0,0,0-0.1,0-0.1c0,0,0,0,0,0l-0.1,0c0,0-0.1-0.1-0.1-0.1h-0.1
			c-0.8-0.4-1.5-1-2.1-1.6c-0.9-0.8-1.6-1.7-2.1-2.8c0-0.1,0-0.1-0.1-0.2c0,0,0,0,0,0c-2,0.1-3.3-1.6-4.5-3
			c-1.2-1.4-2.5-2.6-2.4-4.4c0-0.1-0.1-0.1-0.1,0c0,0.1,0,0.2,0,0.3c-0.1,0-0.2,0-0.3,0.1c-0.3,0.4-1.1,0.3-1.5,0.3
			c-0.4,0-0.9,0.1-1.3,0.1c0,0-0.1,0-0.1,0.1H76c-5.7,0-11.4-0.6-17-1.9c-0.1,0-0.1,0-0.2,0.1c0,0-0.1-0.1-0.1-0.1
			c-0.3,0-0.5,0-0.8-0.1c-0.2-0.1-0.3-0.1-0.5-0.1c-0.2,0-0.1,0.2,0,0.2c0,0,0.1,0,0.1,0l0,0c0,0,0.1,0.1,0.1,0.2
			c0.1,0.1,0,0.1,0.1,0.2c0.1,0.1,0.2,0.1,0.2,0.2c0,0.1,0.1,0.1,0.1,0.1c2.6,4,6.3,7.5,10,10.5c0.2,0.2,0.3,0.4,0.5,0.5
			c0.2,0.2,0.6,0.4,0.9,0.6c0,0,0.1,0.1,0.1,0.1c0.1,0.3,0.5,0.4,0.7,0.6c0.2,0.2,0.5,0.4,0.8,0.6c0,0,0.1,0,0.1,0
			c0,0.1,0.1,0.2,0.2,0.2s0.1,0,0.2-0.1c0-0.1,0,0,0.1,0l0,0c-0.1,0-0.1,0.1-0.1,0.1v0.1c0,0.1,0.1,0.2,0.2,0.2c0,0,0,0,0.1,0
			c0.3,0.3,0.5,0.5,0.8,0.7c1.4,1.1,3,2.1,4.6,3c0,0,0.1,0,0.1,0c0,0,0,0,0,0c1.4,0.9,2.8,1.7,4.4,2.3c0.2,0.1,0.3,0.1,0.5,0
			c0,0.1,0,0.2,0.1,0.2c1.7,1.1,3.5,2,5.5,2.5c1,0.3,1.8,0.8,2.5,0.8c0,0.1,0.1,0.2,0.2,0.1l0,0c0,0,0.1-0.1,0.1-0.1l0,0l0,0l0,0
			l0,0c0.1,0,0.1,0,0.2,0c0,0,0,0.1,0,0.1c0.8,0.6,1.7,0.9,2.7,1.1c1.2,0.5,2.5,0.8,3.8,0.8c0.2,0,0.4-0.2,0.3-0.4
			c0-0.1-0.1-0.2-0.2-0.3c0.1-0.1,0.1-0.2,0.1-0.3l0,0c0-2.5,0.8-4.9,1.1-7.3l0,0c0,0,0,0,0,0c0.1-0.1,0.1-0.2,0.1-0.3
			c0,0,0-0.1,0-0.1c0.4-0.9,0.6-1.9,0.8-2.8c0.3-0.5,0.4-1.1,0.5-1.7c0.6-1.4,1.1-2.8,1.7-4.2c0-0.1,0-0.1,0-0.1s0-0.1,0-0.1
			c0.2-0.4,0.3-0.6,0.5-1C102.5,255.7,102.4,255.7,102.3,255.8z M86.4,257.8L86.4,257.8L86.4,257.8z M90.9,262.3L90.9,262.3
			C90.9,262.4,90.9,262.4,90.9,262.3C90.9,262.4,90.9,262.3,90.9,262.3L90.9,262.3z"/>
		<path class="st5" d="M78.3,249.1c-0.6-0.1-1.1-0.1-1.6-0.2c0,0.1-0.2,0.1-0.3,0c-0.6-0.1-1.3-0.1-1.9-0.2c-0.1,0-0.2,0-0.3,0
			c-0.3,0-0.7,0-1,0c-0.2,0-0.3,0-0.3-0.1c-0.2,0-0.3-0.1-0.5-0.1c0,0,0,0-0.1,0c-0.1,0.1-0.2,0.1-0.3,0.1
			c-5.4-0.9-11.3-1.5-16.4-3.6c0,0-0.1,0-0.2,0l0,0c-0.1,0-0.2-0.1-0.2-0.1c0,0-0.1,0-0.1,0c-0.2,0-0.2-0.1-0.4-0.1c0,0-0.1,0-0.1,0
			c-0.1,0-0.2-0.1-0.3-0.1c-2-3-3.7-6.3-4.9-9.7c-1.1-2.5-2-5-2.6-7.7c-0.2-0.2-0.3-0.5-0.2-0.8c-0.1-0.2-0.1-0.4-0.2-0.6
			c-0.2-0.4-0.3-0.8-0.4-1.3c0,0,0,0,0-0.1c-0.1-0.2-0.2-0.5-0.3-0.8c-0.1-0.2,0.2-0.3,0.3-0.1c0.1,0.1,0.2,0.3,0.3,0.5
			c1.3,0.5,2.3,1.9,3.4,2.7c1.5,1.3,3.3,2.1,4.9,3.3v0c0,0,0-0.1,0-0.1c0,0,0.1,0,0.1,0c2.8,4.7,3,10.6,8.1,13.6
			c4.6,2.7,10.4,4.1,15.6,5.1C78.6,248.9,78.5,249.2,78.3,249.1z"/>
		<path class="st5" d="M71.3,235.6c-1.2-0.6-2.3-1-3.5-1.7c-0.1,0.1-0.2,0.1-0.4,0c-1.5-0.7-2.9-1.4-4.4-2.1c-1-0.5-2.7-0.9-3.3-1.8
			c0,0-0.1,0-0.1,0l0,0c-0.3-0.1-0.6-0.3-0.9-0.5c0,0-0.1,0-0.1-0.1c-2.7-1.2-4.9-3.3-7-5c-0.1-0.1-0.1-0.1-0.2-0.1l-0.1-0.1
			c-0.1,0-0.2,0-0.3-0.1c-1.3-1.1-2.6-2.3-3.8-3.6c-0.7-0.6-1.3-1.2-1.9-1.9c-0.2-0.1-0.3-0.2-0.4-0.4c-0.1,0-0.1-0.1-0.1-0.1
			c0,0,0,0,0,0c0,0-0.1,0-0.1-0.1c-0.1-0.1-0.1-0.3,0-0.4c0,0,0,0,0,0c-0.1-0.7-0.1-1.5-0.3-2.2c-0.1-0.5-0.1-1.1-0.1-1.6
			c-0.4-5.3-0.2-10.6,0.5-15.9c0-0.1,0.1-0.1,0.1-0.1c0-0.5,0-1,0.1-1.5c0-0.2,0.4-0.2,0.3,0v0.1l0,0c0.9,1.4,1.9,2.8,3,4.2
			c1.3,1.7,2.8,3.3,4.3,4.9c0.2,0.1,0.4,0.2,0.4,0.5c0,0,0,0,0,0.1c0,0,0,0,0,0c0.2,6.2-0.1,12.7,3.3,18.3c0.4,0.7,0.9,1.3,1.4,1.9
			c0.3,0.3,0.6,0.6,0.9,1c3.4,3.7,8.4,6.4,12.7,8.4C71.5,235.4,71.4,235.6,71.3,235.6z"/>
		<path class="st5" d="M67.4,214.1C67.4,214.2,67.3,214.2,67.4,214.1c-0.2-0.3-0.3-0.5-0.4-0.8c0,0-0.1,0-0.1,0
			c-0.4-0.2-0.7-0.5-1.1-0.8c0,0-0.1,0-0.1-0.1c0,0,0,0,0,0l0,0c-0.1,0-0.1,0-0.1-0.1l-0.7-0.6c-0.1,0.1-0.1,0.1-0.2,0
			c-1-0.7-2-1.5-2.9-2.4c-0.6-0.4-1.1-0.9-1.5-1.5c-0.1,0-0.3-0.1-0.3-0.2c0,0,0-0.1,0-0.1c-0.1,0-0.1,0-0.2-0.1
			c-2.4-2.3-4.7-4.8-6.7-7.4c-1.2-1.5-3.6-3.9-4.2-6c-0.3-0.4-0.6-0.8-0.9-1.2c-0.4-0.8-0.9-1.6-1.4-2.3c-0.1-0.1-0.1-0.2-0.1-0.3
			c0.2-0.7,0.4-1.4,0.7-2.1c1.2-4.2,3-8.2,5.3-11.8c0-0.1,0.1-0.1,0.2-0.1c0.5-0.8,1-1.6,1.4-2.4c0.2-0.4,0.4-0.7,0.6-1
			c0.3-0.8,0.7-1.5,1.2-2.2c0.2-0.3,0.5-0.6,0.8-1l0.1-0.2c0.1-0.3,0.2-0.5,0.4-0.7c0.2-0.2,0.3-0.4,0.6-0.6
			c0.1-0.1,0.1-0.3,0.2-0.5c0.1-0.2,0.4-0.2,0.4,0.1c0,0.1,0,0.1,0,0.2c0.1,0,0.2,0.2,0.2,0.3c0.1,0.5,0.4,1,0.7,1.4
			c0.3,0.5,0.5,1.1,0.7,1.7c0.6,1.3,1.2,2.5,1.9,3.7c0,0,0.1,0,0.1,0.1c0,0,0,0.1,0,0.1c0.1,0.1,0.1,0.1,0.1,0.2c0,0,0,0,0,0l0,0
			c-2.4,6.2-6.2,12.3-6.1,19.2c0,7.8,5.6,13.2,10.9,18.2c0,0,0,0.1,0,0.1C67.2,213.2,67.4,213.6,67.4,214.1z"/>
		<path class="st5" d="M239.5,281.4C239.5,281.4,239.5,281.4,239.5,281.4c-0.1,0-0.1,0.1-0.2,0.1c-3,1.2-6.1,2.1-9.2,2.7
			c-4.9,1.5-10,2.5-15.2,2.9c0,0-0.1,0.1-0.1,0c-0.1,0.1-0.2,0.1-0.2,0c0,0,0,0,0,0c0,0.1-0.2,0.1-0.3,0.1c-0.1,0,0,0-0.1,0h-0.1
			c-0.1,0-0.1-0.1-0.1-0.1c-0.1-0.1-0.2-0.3-0.3-0.4c0,0.1,0,0.1-0.1,0.1c-0.1,0-0.2,0-0.3,0c-1,0.7-2.7,0.7-3.8,0.7
			c-1.3,0.2-2.7,0.2-4,0.1c0,0-0.1,0-0.1,0s-0.1,0-0.1,0c-1.5,0.2-3.1,0.2-4.6,0.1c-0.8,0.1-1.6,0.1-2.3-0.1c-0.1,0.1-0.3,0.1-0.4,0
			l0,0c0,0,0,0-0.1,0c-0.1,0-0.1,0-0.2,0c-0.1,0.1-0.2,0-0.2,0c0,0,0-0.1,0-0.1c0-0.2-0.1-0.4-0.2-0.6c-0.4,0.4-0.9,0.6-1.4,0.6
			c-2.1,0.6-4.9-0.3-6.9-0.5l-0.8-0.1c-0.1,0-0.2,0-0.3,0c-0.1,0-0.2,0-0.3-0.1c-0.6,0-1.1-0.1-1.7-0.3c0,0,0,0,0,0
			c-0.2,0-0.4,0-0.5-0.2c-0.2-0.2-0.4-0.4-0.6-0.6c-0.2,0.3-0.6,0.4-1,0.3l0,0c-0.5,0.1-1,0.1-1.6,0c-2-0.3-3.9-0.7-5.8-1.4
			c-0.1,0.1-0.3,0-0.4-0.1c0,0,0,0,0,0c-0.6-1.2-1-2.5-1.6-3.7c-0.5-0.9-1-1.8-1.3-2.7c-1.3-2.5-2.9-5.9-1.4-8.2
			c0-0.3,0.1-0.5,0.3-0.6c0-0.1,0-0.2,0-0.2c0,0,0,0,0-0.1c0.3-0.6,0.7-1.1,1.3-1.5c0.1,0,0.2,0,0.2,0.1c0,0,0,0.1,0,0.1
			c-0.1,0.9-0.6,1.8-0.6,2.7c0.1,1.4,0.8,2.6,1.9,3.3c1.7,1.1,3.6,1.6,5.6,1.4c0.1,0,0.1,0,0.2,0.1h0.1c3.8,2.2,9.8,3.1,14.1,2.3
			c0,0,0.1,0,0.1,0l0,0c4.4,0.6,8.9-0.1,12.8-2.1c0.1-0.1,0.1-0.1,0.2-0.1c3.7,0.2,11.1-0.9,11.7-5.7c0,0,0,0,0.1,0c0,0,0,0,0,0
			c0,0.1,0,0.3,0,0.4c0.1-0.1,0.2,0,0.2,0.1c0,0.1,0,0.3,0,0.4c0.1,0,0.2,0,0.2,0.1c0,0,0,0.1,0,0.1c0.1,0,0.1,0,0.1,0.1
			c0.6,0.7,1.2,1.3,1.9,1.8c0.6,0.5,1.2,1,1.8,1.5c1.3,0.9,2.6,1.8,4.1,2.5c0.1,0.1,0.2,0.2,0.1,0.3c1,0.3,2,0.8,2.9,1.3
			c1.7,0.8,3.5,1.4,5.3,1.9l0,0l0.7,0.2c0.5,0.2,0.9,0.3,1.4,0.3l0.2-0.1c0.1-0.1,0.3,0,0.3,0.1l0,0
			C239.8,281,239.8,281.4,239.5,281.4z"/>
		<path class="st5" d="M266.6,252c-0.1,0.1-0.2,0.2-0.3,0.3c0,0.1-0.1,0.2-0.2,0.3l-0.2,0.3c0,0.1-0.1,0.2-0.1,0.3l0,0l0,0.1
			c0,0,0.1,0,0.1,0.1c0,0,0,0,0,0c-0.1,0.3-0.3,0.6-0.4,0.8c0.1,0.2,0,0.5-0.1,0.7c-0.2,0.4-0.5,0.8-0.9,1c-0.3,0.6-0.7,1.2-1,1.8
			c-0.6,1.1-1.2,2.2-1.9,3.2c-0.1,0.4-0.3,0.9-0.6,1.2c-0.9,1.2-1.7,2.4-2.5,3.6c-1.3,1.8-2.7,3.9-4.5,5.2l0,0
			c-0.1,0.4-0.3,0.7-0.6,0.9c-0.7,0.6-1.3,1.2-1.9,1.9c-0.9,1.1-2,2.2-3.2,3.1c0,0.1-0.1,0.2-0.2,0.3c-1.6,0.5-3.4,0.2-5-0.1
			c-2.3-0.2-4.6-0.7-6.8-1.4c0,0-0.1-0.1-0.1-0.1c-0.2,0-0.4,0-0.6,0c-0.1,0-0.3-0.1-0.3-0.2c-1.5-0.1-3.2-1.1-4.5-1.7
			c-2.3-1-4.4-2.2-6.5-3.6c0,0-0.2-0.1-0.2-0.1c-0.7-0.4-1.2-0.8-1.8-1.3l0,0l0.3,0.1l-0.4-0.2l0,0c7.4,2.3,15.3,6.6,22.5,1.8
			c1.5-1.3,2.9-2.7,4.3-4.2c3.1-3.4,5.8-7.1,8.9-10.5c0.1-0.1,0.3-0.1,0.3,0c0.6-0.6,1.6-0.6,2.3-0.8s1.3-0.5,2-0.8l0,0
			c0.5-0.3,1-0.6,1.5-0.8c0.5-0.3,1-0.6,1.6-0.9c0,0,0.1,0,0.1,0c0.3-0.2,0.6-0.4,0.8-0.6c0.1,0,0.3,0,0.3,0.2
			C266.6,251.9,266.6,251.9,266.6,252z"/>
		<path class="st5" d="M271.8,228.3c0,0.1-0.1,0.2-0.2,0.3c0.4,2.8-0.3,6.1-1,8.6c0,0.1,0,0.1-0.1,0.2l0,0c0.2,0.6-0.2,1.5-0.3,2.1
			c-0.3,2.3-0.9,4.5-1.7,6.7c0.1,0.5-0.8,1-1.2,1.2c-1.8,1-3.5,2-5.3,2.9c-1,0.5-2,1-3,1.3c0,0.1-0.1,0.1-0.1,0.2
			c-0.1,0.1-0.2,0.2-0.3,0.1c-0.1,0-0.1-0.1-0.1-0.1l-1,0.4c-2.7,1.1-5.6,1.8-8.5,2.1c-1.4,0.7-3.3,0.4-4.7,0.4
			c-1.9,0.1-3.9,0-5.8-0.3c-1.6-0.1-3.1-0.3-4.7-0.7l0,0l-0.6-0.1 M233.3,253.6c0.2,0,0.3,0,0.5,0c0,0,0,0,0,0
			C233.6,253.6,233.5,253.6,233.3,253.6C233.2,253.6,233.2,253.5,233.3,253.6l0.7-0.2c0,0,0,0,0,0l0,0c9-1,20.3-3.1,26.8-10.1
			c0.3-0.4,0.6-0.9,0.8-1.4c0.3-0.6,0.5-1.3,0.7-1.9c0.8-4.7,1.3-9.4,1.4-14.2c0-0.1,0.1-0.1,0.1-0.1s0.1,0.1,0.1,0.1
			c0,0.1,0-0.1,0,0c0.2-0.8,1.1-1.1,1.8-1.7c1.4-1.3,2.7-2.6,3.9-4.1l0.1-0.1c0.3-0.3,0.6-0.7,0.9-1l0,0c0.1-0.2,0.2-0.5,0.4-0.8
			c0.1-0.3,0.5-0.1,0.4,0.2c0,0.1,0,0.2,0,0.2c0.9,3,0.5,6.6,0.4,9.7L233.3,253.6z"/>
		<path class="st5" d="M237.5,232.4c0,0.1,0.1,0.2,0.2,0.2c0,0,0,0,0,0c1-0.3,2-0.5,3-0.8c0,0.1,0.1,0.1,0.1,0.1
			c1.5-0.2,3-0.5,4.4-0.9c0.1,0,0.1-0.1,0.2-0.1c4.1-0.9,8-2.7,11.4-5.2l0-0.1c0.1,0,0.2,0,0.2,0c1.6-1,3.2-2.2,4.6-3.4
			c0.7-0.4,1.3-1,1.8-1.7c0-0.1,0.1-0.2,0.1-0.2c0.1,0,0.1,0,0.2-0.1c1.5-1.3,2.8-2.8,3.9-4.4c0.7-1,1.7-1.7,2-2.7l0,0h0.1
			c0.3-0.1,0.5-0.3,0.5-0.6c0-0.1,0-0.1,0-0.2c0.2,0,0.3-0.1,0.3-0.3c0,0,0-0.1,0-0.1c-0.2-0.8-0.4-1.5-0.6-2.3
			c0.1-0.8-0.1-1.6-0.6-2.2c-0.2-0.8-0.5-1.7-0.7-2.6c-0.2-0.9-0.6-1.8-1-2.7c0.1,0.1,0.3,0,0.2-0.2c-0.1-0.1-0.2-0.2-0.2-0.3
			c0,0-0.1-0.1-0.1-0.1c0,0,0,0,0-0.1c-0.3-0.8-0.7-1.5-1-2.2l0,0c0-0.5-0.2-1-0.6-1.4c0-0.1,0-0.2,0-0.2c-1-1.8-2.1-3.5-3.1-5.3
			c-0.5-1-1.1-2-1.8-2.8c-0.1-0.2-0.2-0.3-0.3-0.5c0-0.1-0.1-0.1-0.2-0.1c0,0,0-0.1,0-0.1c0-0.1,0-0.2-0.2-0.3
			c0-0.2-0.2-0.3-0.3-0.1c-0.2,0.5-0.7,0.8-0.8,1.3c-0.5,0.5-0.9,1.1-1.4,1.7c-0.6,0.8-1.4,1.6-2,2.4c-0.3,0.3-0.4,0.7-0.5,1
			c-0.1,0-0.2,0-0.2,0.1c0,0,0,0.1,0,0.2c3.4,7.5,9.9,17.9,3.2,25.5c-2.4,2.7-5.6,4.6-8.6,6.5C246,229.5,241.9,231.3,237.5,232.4
			C237.6,232.3,237.6,232.3,237.5,232.4c-0.3,0-0.5,0.2-0.7,0.4l0,0C237.1,232.7,237.3,232.5,237.5,232.4z"/>
		<path class="st6" d="M158,241c-1.2,0.2-2.3,0.5-3.4,1c-0.8,0.5-1.6,1-2.3,1.6l0,0c0,0,0.1-0.1,0.1-0.1c-0.1,0-0.1,0-0.2-0.1
			c0,0,0,0,0,0c0-0.3-0.1-0.5-0.2-0.8c0-0.1-0.1-0.1-0.1-0.2c-0.1,0-0.1-0.1-0.1-0.2v-0.1c0-0.1,0.1-0.2,0.1-0.2c0,0,0,0,0,0
			c0.1,0,0.2-0.1,0.2-0.1l0,0l0,0l0,0c0,0,0.1,0,0.1,0h0c0.4-0.2,0.8-0.4,1.3-0.5c0.8-0.2,1.6-0.3,2.4-0.4c0,0,0.1,0,0.1,0.1
			c0.4,0,0.7,0,1.1,0l0,0C157.4,241.1,157.7,241.1,158,241C158,240.9,158,241,158,241z"/>
		<path class="st6" d="M150.6,248C150.6,247.9,150.6,247.9,150.6,248c-0.7-0.6-1.5-1-2.3-1.3c-0.3-0.1-0.7-0.2-1-0.4
			c-0.2-0.1-0.3-0.2-0.5-0.2l0,0l0,0c0,0-0.1,0-0.1,0c0,0,0,0,0,0c0,0.3,0.1,0.6,0.1,0.9l0,0c0,0,0,0-0.1,0c-0.1,0-0.1,0-0.1,0.1
			c0,0.1,0,0.1,0.1,0.1c2,0.1,4.6,0.9,6,2.4c0,0,0.1,0,0.1,0c0,0,0-0.1,0-0.1C152.2,248.8,151.4,248.3,150.6,248z"/>
		<path class="st6" d="M136.9,256.5c-1.4,1.7-2.3,3.8-2.6,6c0,0.2-0.3,0.1-0.2-0.1c0.2-0.8,0.3-1.6,0.6-2.3c-0.1,0-0.1-0.1-0.1-0.2
			c0,0,0,0,0,0c0.2-0.9,0.4-1.8,0.8-2.6c0.1-0.6,0.4-1.2,0.7-1.7c0-0.1,0-0.2,0-0.2c0.1-0.1,0.3,0,0.3,0.1c0.1,0.3,0.2,0.6,0.4,0.8
			l0,0C136.9,256.2,137,256.4,136.9,256.5z"/>
		<path class="st6" d="M127.4,255.8c-2.3,0.8-3.5,3-4.7,4.9c0.2-0.4,0.4-0.8,0.6-1.2c0,0-0.1,0-0.1-0.1c0.1-0.4,0.3-0.7,0.5-1
			c0,0,0-0.1,0-0.1c0.5-0.7,0.7-1.6,1.2-2.3c0.4-0.7,0.9-1.3,1.5-1.8l0,0l0,0c0-0.1,0.1-0.1,0.1,0c0,0,0,0,0,0
			c0.1,0,0.1,0.1,0.1,0.2c0.1,0.4,0.3,0.7,0.5,1.1c0,0,0,0.1,0,0.1c0,0,0.1,0,0.1,0C127.5,255.5,127.6,255.8,127.4,255.8z"/>
		<path class="st6" d="M109.5,252.6c-1.9-0.7-5,0.7-6.4,2l0,0l0.1-0.1c0,0-0.1-0.1,0-0.1c0,0,0.1-0.1,0.2-0.1c0,0,0,0-0.1,0
			c-0.1-0.3,0.2-0.8,0.5-0.8l0,0l0.3-0.2c0,0,0,0,0-0.1c0.1-0.1,0.1-0.1,0.2-0.1h0.1c1.5-0.8,3-1.3,4.7-1.7c0.1,0,0.2,0,0.2,0.1
			c0,0,0,0.1,0,0.1c0.1,0.2,0.1,0.4,0.2,0.6c0,0,0,0,0,0h0.1C109.8,252.4,109.7,252.7,109.5,252.6z"/>
		<path class="st6" d="M118.8,252.9c-1.2,0.6-2.4,1.4-3.3,2.4c-0.8,1.2-1.6,2.4-2.2,3.7c0,0-0.1,0,0,0c0.2-0.5,0.5-1,0.7-1.5
			c0,0-0.1,0-0.1-0.1c0,0,0,0,0,0c0.1-0.2,0.2-0.3,0.3-0.5c0-0.1,0.1-0.1,0.1-0.2c0.1-0.4,0.4-0.8,0.7-1.2c0.2-0.4,0.5-0.9,0.8-1.3
			c0.6-1,1.4-1.9,2.4-2.6c0.1-0.1,0.2-0.1,0.2,0c0,0.1,0.1,0.1,0,0.2c0,0.1,0,0.3,0,0.4c0.1,0.1,0.1,0.2,0.1,0.3v0.1l0,0
			C118.8,252.6,119,252.8,118.8,252.9z"/>
		<path class="st6" d="M162.7,232.3c-1.9,0.4-3.6,1.3-5.1,2.5c0,0-0.1,0,0,0l0.1-0.1h0c0-0.1-0.2-0.3-0.2-0.5h-0.1c0,0,0-0.1,0-0.1
			c0,0,0,0,0,0s0,0,0,0v-0.1c-0.1,0-0.2-0.1-0.1-0.2c0,0,0,0,0,0l0,0c-0.1-0.1-0.2-0.2-0.3-0.3c0-0.1,0-0.2,0-0.2c0,0,0,0,0,0l0,0
			c0,0,0.1-0.1,0.1-0.1c0.7-0.4,1.5-0.8,2.3-1.1h0.1h0.1h0.1c0.2-0.1,0.4,0,0.6,0.1l0,0c0.3-0.1,0.6-0.1,0.9-0.1c0,0,0,0,0.1,0l0,0
			c0,0,0.1,0,0.1,0.1l0,0c0.1,0,0.1,0,0.2,0.1c0,0,0,0,0,0c0.1,0,0.1,0,0.2,0c0.1,0,0.1,0,0.1,0.1c0.1,0,0.2,0,0.4-0.1
			c0,0,0.1,0,0,0.1C162.4,232.3,162.5,232.3,162.7,232.3C162.8,232.2,162.8,232.3,162.7,232.3z"/>
		<path class="st6" d="M179.6,307.2c0.4-1.5-0.3-3.3,0.2-4.7c0.1-0.2,0-0.4-0.2-0.5c0-0.2,0-0.4-0.1-0.5l0,0
			c0.1-0.2,0.2-0.4,0.2-0.6c0.1-0.3-0.4-0.5-0.4-0.2c-1.5,4.9-8.6,3.9-12.5,4c-2.5,0-5,0.1-7.5,0.4c-3.7,0.6-6,2.9-9.9,1.5
			c-2.3-0.8-4.5-0.8-6.9-0.7c-13.5,0.4-26.9,0.5-40.2-1.2c-0.1,0-0.2,0.2,0,0.2h0.1c0,0.1,0,0.2,0,0.2c0,0.3,0.1,0.6,0.2,0.8
			c0.1,0.2,0.2,0.4,0.2,0.7c0.1,0.4,0.3,0.8,0.5,1.1c0.1,0.1,0.1,0.3,0.2,0.4c0.1,0.1,0.1,0.2,0.2,0.3c0.1,0.1,0.2,0.1,0.4,0.1
			c0,0,0.1,0,0.1-0.1c0,0,0,0,0-0.1c0.1,0,0.1,0,0.2,0c0.7,0.2,1.4,0.3,2.2,0.2c3.8,0.2,7.4,0.7,11.2,0.7c0.1,0.1,0.3,0.2,0.5,0.2
			c0.6,0,1.2-0.1,1.9-0.1c0,0.1,0,0.1,0,0.2c0.1,0.1,0.3,0,0.4,0c0.3,0,0.6,0,1,0.1c0.4,0.1,0.9,0,1.3-0.1l0,0l0.5,0.1
			c1.1,0.2,2.2,0.3,3.2,0.2c0.1,0,0.1-0.1,0.1-0.1c1.2,0.1,2.4,0.2,3.7,0.3c0.2,0,0.3,0,0.5-0.1c0.1,0,0.2,0.1,0.3,0.1
			c3.7,0.1,7.4,0.6,11.1,0.3c2.2-0.1,4.7-0.1,6.7-1c1.2,1.1,2,2.6,3,3.8c1.2,1.5,2.5,2.9,3.9,4.2c0.2,0.2,0.6,0.3,0.9,0.1
			c0.3,0.1,0.5,0,0.8-0.1c3-1.9,4.7-4.9,6-8l0.8,0.1h0.4c0.2,0,0.5,0,0.7,0c0.1,0,0.3,0,0.4,0c0.1,0,0.2,0,0.3,0
			c0,0,0.1-0.1,0.1-0.1c1.8,0.1,3.5,0.1,5.3,0c1.1,0,2.2-0.1,3.2-0.2h0.1c0.1,0.2,0.4,0.2,0.6,0.1c0,0,0,0,0,0
			c0.3-0.3,1.3-0.1,1.7-0.1c0.5,0,1,0,1.5,0c0.5,0,1.1,0.1,1.4-0.4c0-0.1,0-0.2,0-0.3C180,308.1,180,307.6,179.6,307.2z"/>
		<path class="st6" d="M101.2,258.5c-0.2,0.3-0.3,0.7-0.4,1c0-0.1-0.1,0.1,0,0l0,0c-0.9,2.5-1.5,5.1-2,7.8c0,0.1-0.1,0.3-0.2,0.3
			c-0.4,2.1-0.8,4.2-1,6.4c0.2,0.1,0.1,0.6-0.2,0.5l-0.2,0c-0.6,0-1.1,0-1.7-0.2c-0.7-0.1-1.4-0.3-2-0.6l0,0
			c-0.8-0.2-1.6-0.4-2.3-0.8c0,0-0.1,0-0.1,0c-0.1,0.1-0.4,0-0.3-0.2s0.1-0.3,0.3-0.4c0.2-0.2,0.3-0.4,0.4-0.6l0.2-0.3
			c-0.2,0.2-0.3,0.4-0.5,0.6c-0.2,0.2-0.3,0.6-0.6,0.8l0,0c0,0.1-0.1,0-0.3,0c-2.7-0.6-5.2-1.6-7.6-2.9c0,0-0.1-0.1-0.1-0.1
			c-0.2,0-0.3-0.1-0.4-0.2c-0.1-0.1-0.1-0.2,0-0.2c0,0,0.1-0.1,0.2,0l0.1,0l0.2-0.2c-0.4,0.1-0.6,0.5-1.2,0.3
			c-0.8-0.4-1.6-0.7-2.4-1.2c0,0-0.1,0-0.1,0l-0.6-0.3c-0.6-0.3-1.1-0.7-1.7-1c-0.3-0.1-0.6-0.3-0.9-0.5h-0.1
			c-0.1,0-0.2-0.1-0.2-0.1l0,0l0,0c-0.4-0.2-0.8-0.5-1.2-0.8c-0.3-0.2-0.7-0.4-1-0.6c0,0,0,0,0,0c-0.5-0.3-1-0.7-1.5-1
			c0,0-0.1-0.1-0.1-0.1c-0.1,0-0.2-0.1-0.3-0.2c-0.2-0.1,0.1-0.4,0.2-0.2l0,0c0,0,0.1,0,0.1,0c0,0,0.1,0,0.1,0.1
			c0,0,0.1-0.1,0.1-0.1c-0.2,0-0.4,0-0.6-0.1c-0.1,0.1-0.2,0.1-0.3,0c0,0,0,0,0,0c0,0,0-0.1-0.1-0.1c-0.2-0.1-0.4-0.3-0.6-0.5
			c-0.2-0.1-0.4-0.2-0.6-0.4c-0.2-0.1-0.4-0.3-0.5-0.4c0,0-0.1,0-0.2,0c0,0,0,0,0,0c-0.1-0.1-0.2-0.2-0.2-0.4
			c-0.5-0.3-1-0.7-1.4-1.1c-0.1,0-0.1,0-0.2-0.1c-0.6-0.7-1.3-1.4-2-2c-0.7-0.6-1.3-1.3-1.9-1.9c0,0,0-0.1,0-0.1c0,0,0,0,0,0
			c-2-2-4-4.2-5.7-6.4c0,0,0,0,0,0c-0.2-0.1-0.3-0.3-0.4-0.4c-0.2-0.1,0-0.2,0.1-0.2c0.1,0,0.2,0.1,0.2,0.2c1.5,0.3,3,0.6,4.4,0.8
			c0.1,0,0.1,0.1,0.1,0.1l0.2-0.1c0.1,0,0.1,0.1,0,0.1c-2,0.8,4.2,6.7,5.1,7.5c2,1.9,4.1,3.6,6.3,5.1h0.3l0.3-0.1h0
			c1.6-0.4,3.1-0.9,4.6-1.4c1.1-0.5,2.2-0.9,3.3-1.2c0.4-0.2,0.8-0.4,1.2-0.5c0,0,0.1,0,0.1,0l0.7-0.4c0.3-0.3,0.7-0.4,1.2-0.5
			c0.1-0.1,0.2-0.1,0.2-0.2c0,0,0,0,0,0c0.1,0,0.3-0.2,0.4-0.3c0.1-0.1,0.1,0,0,0c-1.9,1.9-4.6,2.8-6.9,4c-0.7,0.3-1.4,0.7-2,1.1
			c-1.4,1.6,0.4,2.7,1.4,3.2c1.5,0.8,3.1,1.4,4.7,1.9c0,0,0.1,0,0.1,0.1c0.8-0.6,1.8-1.1,2.5-1.7c1.1-0.8,2.1-1.7,3.1-2.5
			c0,0-0.1-0.1,0-0.2c0.5-0.3,0.9-0.7,1.3-1.1c0,0,0,0,0.1,0c0.1-0.2,0.2-0.3,0.4-0.5c0-0.1,0.1-0.1,0.1,0c-1.1,1.9-2.5,3.6-4.2,5
			c-0.4,0.4-1.1,0.8-0.7,1.5c0.2,0.4,1.2,0.7,1.6,0.9c1.4,0.6,2.8,0.9,4.3,0.9c0.1,0,0.2,0.1,0.2,0.2c0.1-0.1,0.2-0.2,0.2-0.3l0,0
			c0-0.1,0.1-0.2,0.2-0.2c0.6-0.9,1.2-1.9,1.9-2.7c0.3-0.5,0.5-1.1,0.8-1.6c0-0.1,0.1-0.3,0.1-0.4l0,0c-0.1,1.9-1.4,3.3-2,5
			c1.1,0.4,2.3,0.8,3.4-0.4c0.4-0.6,0.7-1.3,0.8-2c0.4-1.2,0.7-2.4,1-3.7c0.5-2.1,1.4-4.1,2.5-6
			C101.1,258.4,101.1,258.4,101.2,258.5C101.2,258.4,101.3,258.5,101.2,258.5L101.2,258.5z"/>
		<path class="st6" d="M197.2,287c-0.2-0.4-0.4-0.9-0.5-1.3c0-0.2-0.1-0.3-0.2-0.4c0-0.1-0.1-0.2-0.1-0.3c0-0.3,0-0.6-0.1-0.9
			c0-0.1-0.1-0.2-0.2-0.2c0-0.2,0-0.4,0-0.6c0-0.1-0.1-0.2-0.2-0.2c0,0,0,0,0,0c-0.1-1.8-0.8-3.8-1-5.3l0,0c0,1.2,0.1,2.4,0.4,3.6
			c0.2,1.2,0.8,2.3-0.1,3.3c-0.9,1-1.8,0.9-3.1,0.8c-2.8-0.2-5.6-0.7-8.2-1.7c-0.1,0-0.1,0-0.2,0.1c0,0,0,0,0,0
			c-0.1-0.2-0.2-0.5-0.4-0.7c0,0,0,0,0,0c0-0.3-0.1-0.5-0.2-0.7c-0.1-0.3-0.2-0.6-0.4-0.8c0,0-0.1-0.1-0.1-0.1
			c-0.4-1.3-0.8-2.6-1.2-3.8c-0.1-0.3-0.1-0.6-0.2-1c0-0.1-0.1-0.1-0.1-0.1c0,0,0,0,0,0c-0.1-0.5-0.2-0.9-0.3-1.3l0,0
			c0.4,3,1,6.3,2.4,8.9c-1.8,0.1-3.6-0.3-5.2-1.2c-1.3-1-2-2.8-2.9-4.1c-1.9-3-3.2-5.5-3.2-9.2l0,0c0,0.1,0,0.2,0,0.4
			c0-0.1-0.1-0.1-0.1,0c0,0.1-0.1,0.2,0,0.3l0,0c-0.1,0.3-0.2,0.5-0.2,0.8c-0.1,0.2-0.1,0.5-0.1,0.7c0,0,0,0.1,0.1,0.1
			c0,1,0.1,2.1,0.5,3c0.3,1.2,0.8,2.3,1.4,3.3c0.2,0.6,0.5,1.2,0.8,1.8c0.1,0.2,0.1,0.3,0.2,0.5c0.2,0.8,0.6,1.6,1,2.3
			c-0.1,0.1-0.1,0.1-0.1,0.2c0.1,0.5,0.3,0.9,0.6,1.2c-0.1,0.1-0.1,0.2,0,0.2l0,0c0.1,0.1,0.2,0.1,0.2,0h0l0.1-0.1
			c0.1,0,0.2,0.1,0.2,0.1c1.2,0.4,2.5,0.7,3.7,0.9c0.1,0,0.1,0,0.2,0c0,0,0,0,0.1,0c0.6,0.1,1.2,0.4,1.9,0.4c0.2,0,0.5,0,0.7,0l0,0
			c0.4,0.2,0.9,0.2,1.3-0.1c0.2,0,0.3-0.1,0.3-0.3c0,0,0-0.1,0-0.1c0.1,0.1,0.1,0.1,0.2,0.2c0,0,0.1,0,0.1,0
			c0.5,1.2,3.3,1.1,4.6,1.1c0.3,0,0.5,0.1,0.8,0.1s0.3,0.1,0.5,0.1c0.1,0,0.1,0,0.2,0c0.5,0.1,0.9,0.1,1.4,0.1
			c1.5,0.3,3,0.5,4.4-0.2c0,0,0,0,0-0.1C197,287.5,197.3,287.3,197.2,287z M184.5,285.8L184.5,285.8c0-0.1,0-0.1-0.1-0.2
			c-0.2-0.2-0.3-0.5-0.6-0.8l0,0c0.1-0.1,0.1-0.3,0-0.4c0,0,0,0,0,0c0,0,0-0.1,0-0.1l0.2,0.1c-0.1,0-0.1,0.1-0.1,0.2c0,0,0,0,0,0
			l0.2,0.3c-0.1,0.1-0.1,0.3,0,0.4c0,0,0.1,0,0.1,0.1c0,0,0,0.1,0.1,0.2C184.5,285.7,184.5,285.8,184.5,285.8
			C184.6,285.8,184.5,285.8,184.5,285.8z"/>
		<path class="st6" d="M239.2,281.4c0,0-0.1,0-0.2,0c-0.6,0.3-1.2,0.4-1.8,0.7c0,0-0.1,0-0.1,0c-0.5,0.1-1.1,0.3-1.6,0.4
			c-0.6,0.3-1.3,0.5-2,0.6c0,0-0.1,0.1-0.2,0.1c-2.6,0.9-5.3,1.6-8.1,2.1c-3.6,0.9-7.3,1.2-10.9,1.9c0,0-0.1,0-0.1,0
			c0,0.1-0.1,0.1-0.2,0c0,0,0,0,0,0c-0.1-0.3-0.3-0.5-0.5-0.7c-0.1-0.1-0.1-0.2-0.2-0.2l0,0c-0.1,0-0.1-0.1-0.2-0.3c0,0,0,0,0,0
			c0-0.1,0-0.1,0-0.1l0,0c-0.1,0-0.1-0.1-0.1-0.2l0,0H213c0.2,0.3,0.4,0.6,0.7,0.9c0.1,0.1,0.1,0.2,0,0.3c0,0,0,0,0,0
			c0,0-0.1,0-0.1,0c-0.2,0-0.4,0.1-0.6,0.2c0,0.1-0.1,0.1-0.2,0.1c-0.4,0.1-0.8,0.2-1.2,0.2c-0.2,0-0.4,0-0.6-0.1
			c0,0.1,0,0.1-0.1,0.1c-1.6,0.2-3.2,0.3-4.8,0.3c-2.6,0.1-5.2,0.1-7.8,0c-0.1,0-0.2,0-0.2,0c0,0.1-0.1,0.1-0.2,0.1
			c-0.1,0-0.1-0.1-0.1-0.1c-0.1-0.2-0.1-0.4-0.2-0.6c-0.1-0.1-0.1-0.3-0.1-0.4l0,0c-0.1-0.1-0.1-0.2-0.1-0.3c0,0,0-0.1,0-0.1H197
			c-0.2-0.1-0.1-0.4,0.1-0.4c1.9,0.6,4.1,0.3,6,0.3c0.3,0,0.6,0,1,0h0.6c1.8,0.1,4.1,0.1,4.9-0.7c1.7-1.6-0.1-4.2-0.6-5.8
			c-0.5-1.3-0.8-2.7-1-4.2c0,0,0.1-0.1,0.1,0c0.1,0.5,0.2,1,0.3,1.5c0,0,0.1,0,0.1,0c0.6,1.3,1,2.7,1.7,4c0.1,0.3,0.3,0.6,0.4,1
			c0,0,0.1,0.1,0.1,0.1c0.6,1.2,1.3,2.3,2.1,3.3c0,0,0-0.1,0.1-0.1c3.4-0.3,6.8-0.7,10.2-1.4c1.5-0.3,11.6-2.6,8.4-5.3
			c-0.2-0.1,0.1-0.4,0.2-0.2c0.2,0.2,0.4,0.3,0.5,0.6c0.1-0.1,0.2-0.1,0.3,0c2.2,0.9,4.5,1.6,6.8,1.9
			C239.7,280.9,239.6,281.5,239.2,281.4z"/>
		<path class="st7" d="M128.3,209.9c-1.5,2.4-3.5,4.5-5.9,6c-2.1,1.1-4,2.6-5.6,4.4c0-2.7,0.6-5.4,1.9-7.8
			C121.7,210.7,125,210.6,128.3,209.9z"/>
		<path class="st8" d="M128.3,210c0,0,0,0.1,0,0.1v0.1c-0.2,0.3-0.3,0.5-0.5,0.8c-0.1,0.2-0.2,0.3-0.3,0.5l-0.4,0.5
			c0,0.1,0,0.2-0.1,0.2c0,0,0,0,0,0c-2.3,0.5-5.1,0.3-7.1,1.7c-1.7,1.2-2.5,4.2-2.9,6.2l0,0l0,0l0,0c0,0,0,0.1-0.1,0.1
			c-0.1,0,0,0,0,0l0,0c0,0,0,0.1,0,0.1l0,0c0,0-0.1,0-0.1,0c0,0,0,0,0,0l-0.1,0.1l0,0c-0.1-0.1-0.1-0.1-0.1-0.1c0,0,0-0.1,0-0.1
			c-0.1-0.1-0.1-0.3,0-0.5l0,0c0-0.2,0-0.4,0-0.7l0,0l0,0v0c0,0,0-0.1,0-0.1l0,0c0-0.2,0-0.4,0.1-0.6c0-0.1,0-0.2,0-0.2l0,0
			c0-0.4,0.1-0.9,0.2-1.3c0.1-0.6,0.2-1.2,0.5-1.8c0,0,0-0.1,0.1-0.1c0,0,0,0,0,0l0,0c0.1-0.4,0.2-0.7,0.4-1
			c0.2-0.4,0.3-0.8,0.5-1.2c0-0.1,0.1-0.2,0.1-0.2c0.5-0.6,2.1-1,2.8-1.2c1.2-0.4,2.5-0.7,3.8-0.8c0.1,0,0.3,0,0.4,0
			c0,0,0.1,0,0.2,0c0,0,0.1-0.1,0.2,0c0.3-0.2,0.7-0.1,1-0.2c0.4-0.1,0.7-0.2,1.1-0.3l0,0c0.1,0,0.2,0,0.2,0.1
			C128.2,209.8,128.3,209.9,128.3,210z"/>
		<path class="st9" d="M142.6,113.6L142.6,113.6L142.6,113.6C142.6,113.6,142.6,113.6,142.6,113.6c0,0.1,0,0.2,0,0.2
			c0,0,0.1,0,0.1,0c0.4-0.1,0.7-0.5,1.1-0.7c0.1,0,0.2-0.1,0.3-0.2l0.2-0.1c0.2-0.2,0.4-0.3,0.7-0.4c0.1-0.1,0.2-0.1,0.3-0.2
			c0.1-0.1,0.1-0.1,0.1-0.2l0.2-0.1c0.1,0,0.1-0.1,0.1-0.2c0-0.1-0.1-0.1-0.2-0.1l0,0c-0.1,0-0.2,0-0.3,0.1c0,0-0.1,0-0.1,0
			c-0.2,0-0.4,0-0.6,0s-0.8-0.1-1,0c-0.3,0.1-0.2,0.3-0.3,0.6c-0.1,0.4-0.4,0.7-0.5,1.1c0,0-0.1,0.1-0.1,0.1c0,0,0,0.1,0,0.2
			L142.6,113.6z"/>
		<path class="st9" d="M184,187.7L184,187.7c0.3-2.5,0.1-5-0.6-7.4c0-0.6-0.1-1.1-0.2-1.7c-0.1-0.3-0.2-0.5-0.3-0.8
			c-0.1-0.3-0.1-0.3-0.1-0.5l-0.1-0.5c0-0.2-0.1-0.4-0.2-0.6c-0.1-0.1-0.1-0.2-0.2-0.2c-0.3-0.9-0.6-1.8-1-2.6
			c0-0.1-0.1-0.1-0.1-0.1c0,0,0-0.1,0-0.1c-0.2-0.4-0.4-0.8-0.6-1.3l0,0c0,0,0,0,0-0.1c0-0.2-0.1-0.5-0.2-0.7
			c-0.1-0.2-0.1-0.5-0.2-0.7c0,0,0-0.1-0.1-0.1c0,0,0-0.1,0-0.1c-0.1-0.3-0.1-0.6-0.2-0.9c0,0,0,0,0-0.1c0,0,0,0-0.1,0
			c-0.1-0.6-0.1-1.2-0.2-1.8l0,0c0,0,0,0,0-0.1c0-0.2,0-0.4,0.1-0.6c0-0.1,0.1-0.3,0.1-0.4c0-0.1,0-0.2,0-0.3
			c0.4-1.1,0.6-2.3,0.8-3.4c0.1,0,0.1-0.1,0.1-0.2c0-0.1,0-0.2,0-0.3c0.1-0.4,0.2-0.8,0.3-1.1c0-0.1,0.1-0.2,0.1-0.4l0.1-0.4
			l0.3-1.3c0-0.2,0.1-0.4,0.1-0.5c0-0.2,0-0.5-0.1-0.7l0,0c0.4-2.1,0.5-4.2,0.3-6.2c0-0.3,0-0.6-0.1-0.9c0.1-0.1,0.1-0.1,0.1-0.2
			c0-0.1,0-0.2,0-0.3c0-0.2,0-0.3,0-0.5c0-0.1,0-0.2,0-0.2c0-0.1-0.1-0.1-0.1-0.1c0-1.3-0.3-2.6-0.4-4c0-0.1,0-0.2-0.1-0.2
			c-0.1-0.4-0.2-0.8-0.3-1.1c0.1-0.1,0.1-0.2,0.1-0.3c0-0.6-0.1-1.1-0.4-1.7c0-0.1,0-0.2,0-0.3c-0.3-0.6-0.5-1.1-0.7-1.7
			c-0.4-1.5-0.9-2.9-1.6-4.3c0.1-0.1,0.1-0.2,0-0.3c-0.3-0.8-0.8-1.5-1.2-2.2c-0.4-0.8-0.8-1.5-1.3-2.3c-1-1.6-2.1-3.1-3.2-4.5h0
			c-1.7-2.2-3.7-4.2-6-5.8c-2.2-1.8-4.6-3.4-7.2-4.6c-2-1.2-4.1-2.1-6.3-2.7c-0.1,0-0.1,0-0.2,0.1l-0.8-0.2l-0.5-0.2
			c0-0.1-0.1-0.2-0.3-0.2c-0.1,0-0.1,0.1-0.2,0.1l-0.2-0.1c-0.2-0.1-0.4-0.1-0.6-0.2c-0.1-0.1-0.2-0.1-0.3,0l0,0
			c-0.1-0.1-0.2-0.1-0.3,0c0,0,0,0,0,0.1c-1,2.8-2.3,5.5-4,7.9c-0.1,0.1-0.1,0.2,0,0.2c-0.2,0.3-0.4,0.7-0.6,1
			c-1.7,2.3-3.2,4.7-4.8,7.1c-0.8,1.1-1.7,2.2-2.5,3.3c-0.1,0-0.2,0-0.3,0.1c-0.3,0.4-0.6,0.8-1,1.1c-0.4,0.3-0.7,0.7-0.9,1.1
			c-0.1,0.1,0,0.2,0.1,0.3c0,0,0.1,0,0.1,0c0,0.1,0,0.1,0,0.1c0,0,0,0,0,0l-0.1,0.1c-0.1,0.1,0,0.2,0.1,0.2
			c6.6-4.6,11.2-11.9,14.5-19.2c4.9,1.1,9.3,4.5,13.1,7.7c3.5,2.9,6.7,6.2,9.3,10c2.8,4,4.8,8.4,5.8,13.1c1.1,4.9,0.6,9.6,0,14.6
			c-0.6,4.2-0.5,8.4,0.4,12.5c0.7,2.9,1.2,5.9,1.4,8.9c0,1.1-0.1,2.2-0.2,3.3c-0.1,1.1-0.4,2.2-0.6,3.2c-2.6,9.3-9.7,16.1-16.8,22.2
			c-0.2,0.1,0.1,0.4,0.2,0.3l0.7-0.6l0,0c0.1,0,0.2,0,0.2,0c0.1,0,0.1,0,0.2-0.1c0.1,0,0.1-0.1,0.1-0.1l0,0h0.1l1.4-0.8
			c0.1,0,0.2,0,0.3-0.1c0-0.1,0.1-0.1,0.2-0.1l2.9-1.5c1.1-0.5,2.1-1.1,3.1-1.7l0,0c0.1,0,0.2,0,0.3,0c0.4-0.1,0.7-0.3,1-0.6
			l0.4-0.4c0,0,0,0,0.1-0.1c0,0,0-0.1,0-0.1c0.2-0.1,0.4-0.3,0.5-0.4h0.1c0.2,0,0.3-0.1,0.5-0.2c0.6-0.4,1.2-0.9,1.7-1.5
			c0.9-0.9,1.8-1.9,2.6-2.9c0.5-0.5,0.9-1.1,1.1-1.8c0-0.1,0-0.1,0-0.2c0.9-1.1,1.5-2.3,1.9-3.7l0,0c0,0,0.1,0,0.1,0
			c0,0,0-0.1,0-0.2c0-0.1,0.1-0.2,0.1-0.3c0.1-0.2,0.2-0.4,0.2-0.7c0-0.1,0-0.1,0-0.2v-0.1c0.4-0.9,0.7-1.8,0.7-2.7l0.1-0.1
			c0.2-0.3,0.3-0.7,0.3-1.1c0-0.1,0-0.2,0-0.3c0-0.1,0-0.2,0.1-0.2c0.1-0.3,0.1-0.5,0.1-0.8c0-0.1,0-0.3-0.1-0.4
			C184.2,187.9,184.1,187.8,184,187.7C184.1,187.7,184.1,187.7,184,187.7z"/>
		<path class="st10" d="M144.1,211.2c0,2.7-2.2,5-4.3,6.5c-1.5,1.1-3.1,1.9-4.8,2.4c-2.3,0.7-5.7,0.6-7.5,2.4
			c-0.2,0.2-0.5-0.1-0.3-0.3c0.1-0.1,0.1-0.1,0.2-0.2c-0.1-0.1-0.1-0.2-0.1-0.2c0.1-1-0.3-2-1-2.6c-0.7-0.5-1.4-0.8-2.2-1
			c-0.2-0.1-0.1-0.2,0-0.2c0.1,0,0.2-0.1,0.3-0.1c0.1,0,0.2,0,0.3,0c1.1-0.5,2.9-0.3,4-0.3c2.2-0.1,4.4-0.4,6.6-0.8l0,0
			c1.4-0.4,2.7-0.9,4-1.4l0,0c0.9-0.4,1.7-0.9,2.6-1.3c0,0,0-0.1,0.1-0.1c0.2-0.1,0.4-0.3,0.7-0.4c0.4-0.3,0.7-0.6,1.1-1l0,0l0,0
			C143.8,212.1,143.9,211.7,144.1,211.2L144.1,211.2z"/>
		<path class="st10" d="M118.3,251.3c0,0.1,0,0.1,0,0.2v0.1c0,0.1-0.1,0.1-0.2,0c0,0,0,0,0,0c-0.7,0.9-1.5,1.8-2.4,2.5
			c-0.2,0.3-0.4,0.7-0.6,1c-0.6,1-1.1,2-1.6,3.1c-0.1,0.3-0.2,0.6-0.2,0.8c0,0.1-0.2,0.2-0.3,0.2c-0.1,0-0.2-0.1-0.2-0.2
			c-0.1,0-0.3-0.1-0.3-0.2c0-0.1,0-0.2,0-0.3l0,0c-0.1,0.1-0.1,0.1-0.2,0c0,0,0,0,0,0c-0.1-0.1-0.1-0.3-0.1-0.4
			c-0.1,0-0.3,0-0.3-0.2c0,0,0,0,0,0c0-0.1,0-0.1,0-0.2c-0.1,0-0.2-0.1-0.3-0.3c0-0.1,0.1-0.2,0.1-0.3c-0.7-0.7-1.1-1.6-1.2-2.6
			c-0.1-0.2-0.2-0.4-0.2-0.7c-0.3-0.4-0.5-0.9-0.5-1.4l0,0c-0.2-0.4-0.3-0.8-0.5-1.1c0,0.1,0,0.1-0.1,0.1c-0.4,0.1-0.7,0.2-1.1,0.2
			c-0.4,0.1-0.7,0.1-1.1,0.1l0,0l-0.6,0.2c0,0,0,0,0,0c-0.3,0.2-0.6,0.3-0.9,0.4c-0.1,0-0.2,0.1-0.4,0.1c0,0,0,0,0,0.1
			c-0.4,0.3-0.9,0.5-1.3,0.8c-0.5,0.3-1,0.6-1.5,1l0,0l-0.1,0.2c-0.1,0.2-0.3,0-0.3-0.1c0.1-0.5,0.3-1,0.6-1.4
			c-0.1-0.1-0.1-0.2,0-0.3c0,0,0,0,0,0c0.8-0.6,1.7-1.1,2.7-1.3c1.3-0.4,2.6-0.7,3.9-0.8c0.1,0,0.2,0.2,0.1,0.2c0,0,0,0.1,0,0.1
			s0-0.1,0,0c0.8,1.4,1.8,3.5,3.3,4.3c0.5-0.7,1-1.3,1.6-1.8c1.2-1.2,2.6-2.1,4.2-2.7c0,0,0.1,0.1,0,0.1c0,0-0.1,0-0.1,0.1
			c0,0,0.1,0.1,0,0.1C118.3,251.2,118.3,251.2,118.3,251.3z"/>
		<path class="st10" d="M126.2,254.3L126.2,254.3c-0.5,0.6-0.8,1.3-1.3,1.9c-0.4,0.5-0.7,1-1,1.5c-0.1,0.2-0.1,0.4-0.2,0.6
			c-0.1,0.4-0.3,0.8-0.5,1.1c0,0,0,0.1-0.1,0.1c-0.1,0.4-0.2,0.8-0.4,1.1l0,0v0c0.1,0.1,0,0.2-0.1,0.3c-0.1,0.1-0.2,0-0.3-0.1
			c-0.4-0.5-0.7-1.1-0.9-1.8c-0.1,0-0.2,0-0.2-0.2c0,0,0,0,0,0c0-0.1,0-0.1,0-0.2c-0.1-0.2-0.3-0.4-0.3-0.7l-0.1-0.2
			c-0.2-0.3-0.4-0.7-0.5-1.1l0,0c-0.3-0.4-0.5-0.8-0.7-1.3c0,0,0-0.1,0.1-0.1l0.1,0.1c-0.3-0.7-0.6-1.4-0.7-2.1l0,0
			c-0.3-0.8-0.5-1.5-0.7-2.4c0,0,0,0,0.1,0c0.7,2.2,1.9,4.3,3.6,6c0.2-0.3,0.5-0.6,0.8-0.9c1-1.1,2.1-2,3.3-2.9
			c0.1-0.1,0.2,0.1,0.1,0.1c-0.1,0.1,0.1-0.1,0.1,0l0,0c0,0.2,0.1,0.5,0.2,0.7C126.7,254.1,126.4,254.5,126.2,254.3z"/>
		<path class="st10" d="M136.1,255.3c0,0.1,0,0.2-0.1,0.2c0,0-0.1,0-0.1,0c0,0.1-0.1,0.2-0.1,0.2c-0.3,1.1-0.9,2.1-1.2,3.2
			c-0.3,1.2-0.5,2.4-0.5,3.7c0,0.1,0,0.1-0.1,0.1c0,0.1-0.2,0.2-0.3,0.1c-0.4-0.3-0.8-0.7-1.1-1.1l0,0c-0.3-0.1-0.5-0.3-0.6-0.6
			c-0.1,0-0.2,0-0.3,0c0-0.1-0.2-0.1-0.2-0.2s-0.1-0.2-0.1-0.3c-0.7-0.7-1.4-1.5-2-2.3c-0.5-0.6-0.9-1.2-1.3-1.8
			c-0.7-0.8-1.2-1.8-1.6-2.8l0,0c1,1,1.7,2.3,2.6,3.3c0.7,0.8,1.6,1.5,2.5,2.1c0.7-2,2.5-3.9,4-5.1c0.1-0.1,0.3,0.1,0.2,0.2l0,0
			c0,0,0,0.1,0,0.1c0,0.2,0.2,0.3,0.2,0.6l0,0l0,0C136.1,255.1,136,255.2,136.1,255.3C136,255.3,136.1,255.3,136.1,255.3z"/>
		<path class="st10" d="M145.7,246.5L145.7,246.5c0,0.7,0,1.4,0,2.1c-0.5,3.9-2.2,7.5-4.9,10.4c-0.7-0.5-1.4-1.1-2-1.8
			c-0.7-0.7-1.3-1.6-2-2.3l-0.5-0.7l0,0c1.2,2.7,3.1,5.1,5.4,6.9h0l0.1,0.1c0.1,0.1,0.2,0.1,0.3,0c0,0,0.1-0.1,0-0.2
			C144.8,256.6,146.5,251.7,145.7,246.5z"/>
		<path class="st10" d="M159.2,240.5c0.2,0.2,0,0.5-0.2,0.4c0,0.1-0.1,0.1-0.2,0c-2.3-0.3-4.6,0-6.7,0.9c0,0.1,0,0.2-0.2,0.2
			s-0.2,0-0.2-0.2c0,0,0-0.1,0-0.1c0-0.1-0.1-0.1-0.1-0.2c0.4,1,0.7,2,0.8,3c0.3,0.6,0.4,1.3,0.3,1.9c0.1,0.3,0.2,0.5,0.1,0.8
			c0.1,0.1,0.1,0.2,0.2,0.3c0.1,0.1,0.1,0.3-0.1,0.4l0.1,0.1c0.1,0.1,0.1,0.3,0,0.4c0,0-0.1,0-0.1,0.1c0,0.1,0,0.2,0,0.3l0.1,0.1
			c0,0,0,0.1,0,0.1c0,0.1,0.1,0.1,0.1,0.2c0,0.1,0,0.3-0.2,0.3c-0.1,0-0.3,0-0.3-0.2c-0.2-0.4-1.1-1-1.5-1.3
			c-0.4-0.3-0.8-0.6-1.3-0.8c-0.5-0.2-1-0.4-1.4-0.7c-0.6-0.1-1.1-0.4-1.7-0.6c-0.1,0-0.1,0-0.2-0.1c0,0,0,0,0,0
			c0-0.1,0-0.2-0.1-0.3v-0.1l0,0c-0.1,0,0-0.1,0-0.1c1.9,0,3.7,0.5,5.3,1.3c0.3-1.9,0.1-3.8-0.5-5.6c0-0.1,0-0.1,0.1-0.1s0,0,0,0
			c2.1-1.2,4.6-1.6,7.1-1.2c-0.6-2.5-0.8-5.1-2.2-7.4l0,0c1.6,2.2,2.6,4.8,2.9,7.5c0.1,0,0,0.1,0.1,0.1c0.1,0,0.2,0.2,0.2,0.3
			C159.3,240.5,159.2,240.5,159.2,240.5z"/>
		<path class="st10" d="M163.1,232c-0.4-0.1-0.7-0.2-1-0.3l-0.9-0.5c-0.1-0.1-0.3,0.1-0.1,0.2c0.1,0.1-0.2,0-0.2,0s0,0-0.1,0
			c-0.3,0.1-0.7,0.2-0.9,0.4c-0.1,0-0.1,0.1,0,0.2c0,0,0.1,0.1,0.1,0.1h0.1c0,0.1,0.1,0.1,0.2,0.1h1c0.3,0,0.7-0.1,1-0.1l0,0
			c0.2,0.1,0.5,0.1,0.7,0.1c0.1,0,0.2-0.1,0.2-0.2C163.2,232.1,163.1,232,163.1,232z"/>
		<path class="st11" d="M142.7,213.5c-1.9,1.8-4.2,3.2-6.7,4.2c-3,1.1-6.9,0-9.1,2.7c-0.2,0.2-0.2-0.2-0.3-0.3s0.1-0.1,0.1-0.1l0,0
			c-0.2-0.4-0.5-0.7-0.8-0.9c-0.3-0.2-0.7-0.6-1.1-0.6c-0.1,0-0.1,0-0.1-0.1c-0.1,0-0.2,0-0.3-0.1c-0.1,0-0.3,0-0.4-0.1
			c-0.1,0-0.1-0.1,0-0.2c0.1-0.1,0.2-0.1,0.3-0.1c0-0.1,0-0.1,0.1-0.1c0.9-0.1,1.9-0.2,2.8-0.3c1.1-0.1,2.3,0,3.4-0.1
			c0.1,0,0.1,0,0.2,0c1.1-0.3,2.4-0.3,3.5-0.6c0.6-0.2,1.2-0.4,1.9-0.4c0,0,0.1-0.1,0.1-0.1c1.3-0.4,2.5-1.1,3.7-1.4
			c0,0,0-0.1,0.1-0.1c0.3-0.1,0.5-0.3,0.8-0.4l0,0c0.3-0.2,0.6-0.3,0.9-0.5c0.2-0.2,0.5-0.3,0.7-0.4l0,0l0.2-0.2
			C142.7,213.3,142.8,213.4,142.7,213.5C142.8,213.4,142.8,213.4,142.7,213.5z"/>
		<path class="st12" d="M143.7,200.4c-4.5,5.9-11.5,8.7-18.7,9.7c-6,0.8-11.1,4.5-13.1,10.4c-7.3-5-7.3-15.4-2.3-22
			c0.1-0.1-0.1-0.2-0.1-0.1c-0.6,0.7-1,1.4-1.5,2.2c-0.9-2.8,0.3-5.7,2.8-7.1c1.5-0.9,2.7-1.4,3.8-2.7c-0.2,0.4-0.3,0.8-0.4,1.2
			c0,0,0.1,0.1,0.1,0c1.3-4.2,6.3-6.7,9.9-3.3c1.3,1.2,1.4,2.8,2.3,4.1c0.8,1.1,2.3,1.6,3.4,2.3c1.6,1,3,2.2,4.2,3.7
			c0.8,1.1,1.8,2,3,2.6C139.3,202.2,141.8,201.9,143.7,200.4z"/>
		<path class="st12" d="M144,211L144,211c0-1.2-0.9-2.6-1.5-3.3c-0.7-0.9-2-2.7-3.3-2.5c-0.1,0-0.2,0.1-0.2,0.2l0,0c0,0-0.1,0-0.1,0
			l0,0c0,0,0,0.1,0,0.1c-0.1,0-0.2,0-0.3,0c-0.4,0.2-0.9,0.4-1.2,0.7c0-0.1,0-0.1,0-0.2c0-0.3-0.2-0.5-0.5-0.5
			c-0.2,0-0.4,0.1-0.5,0.4c0,0,0,0.1,0,0.1c-1.4,0.6-2.5,1.8-3.7,2.8l0,0c0,0,0-0.1,0-0.1l0,0h0c-0.1,0-0.1,0-0.2,0v-0.1
			c0-0.4-0.3-0.7-0.7-0.7c-0.3,0-0.6,0.2-0.7,0.5l-0.1,0.2c-0.1,0-0.1,0-0.1,0.1c-0.2,0.3-0.5,0.7-0.7,1c0-0.3-0.3-0.5-0.7-0.5
			c-0.1,0-0.2,0.1-0.3,0.1c0,0-0.1,0-0.1,0c0,0,0,0,0,0l0,0c0,0-0.1,0-0.1,0c-0.1,0.2-0.2,0.4-0.3,0.6c-0.1,0.2-0.2,0.5-0.4,0.7v0.1
			c-0.4,0.7-0.8,1.3-1.3,1.9c-0.4,0.5-1,0.8-1.4,1.3l-0.3,0.3c-0.6,0.4-1.1,0.8-1.7,1.2c-0.6,0.4-1.2,0.8-1.9,1.1
			c0,0-0.1,0.1-0.1,0.1l-0.6,0.3l-0.4,0.2l0,0c-0.1,0-0.2,0.1-0.2,0.2l-0.1,0.1l0,0c-0.7,0.5-1.4,1.1-2.1,1.7
			c-0.5,0.4-1,0.9-1.4,1.5H117c0-0.9,0-1.8,0-2.8c0,0,0,0,0,0c0-0.1,0-0.1,0-0.2l0,0c0.1-0.2,0.1-0.4,0.1-0.6c0,0,0,0,0-0.1
			c0.2-0.6,0.4-1.3,0.5-1.9c0.1-0.1,0.1-0.3,0.2-0.4c0,0,0.1,0,0.1,0c0.1-0.4,0.3-0.7,0.5-1c0.1-0.2,0.2-0.5,0.3-0.8l0,0
			c0,0,0,0,0,0.1c0,0,0-0.1-0.1-0.1s0,0,0,0l0,0c-0.1,0.1-0.2,0.1-0.3,0.2c-0.2-0.1-0.4-0.1-0.6,0c0,0.1-0.1,0.1-0.1,0.2
			c0,0.1,0,0.2-0.1,0.3c0,0-0.1,0-0.1,0.1c0,0,0,0.1,0,0.1s-0.1,0.1-0.2,0.1c-0.1,0.1-0.1,0.2,0,0.3c0,0,0,0,0,0
			c-0.2,0.3-0.3,0.6-0.3,0.9l0,0c-0.1,0.1-0.2,0.3-0.2,0.5c-0.2,0.4-0.3,0.8-0.3,1.2c-0.1,0.3-0.1,0.5-0.1,0.8l0,0
			c-0.2,0.6-0.2,1.3-0.1,2c0,0.3,0,0.7,0,1c0,0.6,0.1,1.2,0.2,1.8c0,0.1,0.1,0.1,0.1,0.1c0.1,0,0.1-0.1,0.1-0.1l0,0
			c0,0,0.1,0,0.1-0.1c0.1-0.1,0.2-0.2,0.2-0.4l0,0c0.1-0.1,0.1-0.1,0.2-0.2c0.1,0,0.1-0.1,0.2-0.1c2.4-1.8,5.1-3,8-3.7
			c0.2,0.1,0.4-0.1,0.6-0.1h0.2c0.3,0,0.6,0,0.8-0.1h0.1c0,0,0.1,0,0.1,0l0,0l0,0c0.4,0.1,0.8,0.1,1.3,0h0.2c0.5,0.1,1,0,1.5-0.1
			c0.1,0,0.3,0,0.4,0l0,0h0.2c0.5,0,0.9,0,1.4-0.1c0.7,0,1.4-0.2,2.1-0.4c1.2-0.1,2.4-0.5,3.5-0.9l0,0c0.2-0.1,0.4-0.2,0.6-0.3
			l0.5-0.1l0,0c0.4-0.1,0.8-0.3,1.2-0.5c0.2,0,0.3-0.1,0.4-0.2c0.6-0.3,1.2-0.6,1.8-1h0.1l0.1-0.1h0.1l0,0c0.7-0.4,1.2-1,1.6-1.7
			c0-0.1,0-0.1,0-0.2C144.1,211.6,144.1,211.3,144,211z"/>
		<path class="st13" d="M138.1,205.9C138,205.9,138,205.9,138.1,205.9c-1.3,0.8-2.7,1.3-3.9,2.1l0,0c-1.3,0.4-2.5,0.8-3.7,1.3
			c0,0-0.1,0-0.1,0.1c-0.6,0-1.1,0.1-1.7,0.4c0,0,0,0,0-0.1c0,0-0.1-0.1-0.2,0c-0.1,0.3-0.2,0.5-0.3,0.8c-0.1,0.2-0.2,0.3-0.3,0.5
			l-0.3,0.1c-0.1,0-0.2,0.1-0.2,0.2c0,0,0,0,0,0.1c-0.1,0.1-0.2,0.3-0.2,0.4l0,0l-0.4,0.4c-0.4,0.5-0.8,0.8-1.3,1.2
			c-0.7,0.8-1.5,1.5-2.3,2.1c-0.4,0.2-0.9,0.5-1.3,0.7c-0.5,0.2-1,0.5-1.4,0.8c-0.3,0.1-0.6,0.2-0.8,0.5c-0.4,0.2-0.8,0.5-1,0.8
			c-0.6,0.4-1.1,0.9-1.5,1.4c0,0-0.1,0-0.2,0c-0.2,0.2-0.3,0.4-0.5,0.6c-0.3-2.8,0.6-5.1,1.6-7.6l0,0l0,0c0,0,0-0.1,0.1-0.1l0,0l0,0
			l0.1-0.1c0.1-0.1,0-0.2-0.1-0.1c-0.4,0.2-0.7,0.4-1,0.7c-0.2,0.1-0.4,0.2-0.5,0.5c0,0.1,0,0.1,0,0.1c0,0.1-0.1,0.1-0.1,0.2l0,0
			c-0.5,0.9-0.7,1.9-0.8,2.8c-0.3,1.7-0.3,3.4,0,5.1c0,0.2,0.4,0.3,0.4,0c0,0,0,0,0.1,0c2-2.9,4.6-4.2,7.5-5.9
			c2.1-1.2,3.3-2.9,4.7-4.8c4-0.8,7.6-2.9,10.1-6.1l0,0C138.6,205.4,138.3,205.6,138.1,205.9z"/>
		<path class="st13" d="M130.1,195L130.1,195l-0.5-0.2l-0.8-0.4l-0.4-0.3l-0.5-0.3l-0.4-0.2c-0.2-0.1-0.3-0.3-0.5-0.4
			c0,0,0-0.1,0-0.1c0-0.1-0.1-0.2-0.2-0.2c-0.2-0.3-0.3-0.5-0.5-0.8c0,0,0,0-0.1-0.1l0,0c-0.1-0.2-0.1-0.3-0.2-0.5
			c-0.1-0.2-0.1,0-0.1,0c0,0.2,0,0.4,0.1,0.5l0,0c2.1,4.5-5.5,6.1-6.3,10c0,0,0,0.1,0,0.1c0,0.1,0,0.2,0.1,0.2c0.1,0,0.1,0,0.2,0
			c2.9-2.7,9.2-2.8,10.3-7.2l0,0c0-0.1,0-0.2-0.1-0.3C130.2,195,130.2,195,130.1,195z M126.1,192.2L126.1,192.2L126.1,192.2z"/>
		<path class="st13" d="M108.1,200.5v-0.2c0,0,0,0,0.1,0c0.5-0.5,0.7-1.3,1.2-1.8l0.1-0.1c0,0,0,0.1,0,0.1l0,0
			c0.2-0.1,0.4-0.4,0.6-0.6c0.2-0.3,0.5-0.5,0.7-0.7l0,0c0.2-0.2,0.4-0.4,0.6-0.6c0-0.1,0-0.1-0.1-0.1c0,0,0,0-0.1-0.1
			c-1.3-0.1-2.5,0.4-3.5,1.2c-0.1,0.1-0.1,0.1-0.2,0.2c0,0.1,0,0.1,0.1,0.1l0,0l0,0l0,0c-0.1,0.4-0.1,0.7-0.1,1.1c0,0.5,0,1,0.2,1.5
			c0,0,0.1,0.1,0.1,0.1c0.1,0.1,0.2,0.1,0.2,0C108.2,200.7,108.2,200.6,108.1,200.5z"/>
		<path class="st14" d="M145.8,101.1c-0.6,3.5-1.4,7-2.6,10.4l0,0c-0.1,0-0.1,0.2,0,0.2c-0.2,0.4-0.3,0.9-0.5,1.3
			c-2.9,7.2-6.5,14.9-11.8,20.7c-0.2-0.5-0.4-0.9-0.7-1.4c0,0-0.1-0.1-0.1-0.1c0,0-0.1,0-0.1,0c-1.6,0.2-2.9,1.7-3.8,3
			c-0.1-0.4-0.2-0.7-0.3-1.1c1.9-6.8,3.7-13.6,6.3-20.2c1.3-3.4,2.7-6.8,4.3-10.1c1.5-3.2,2.9-6.5,5.3-9.1c0,0,0-0.1,0-0.2
			c0,0-0.1,0-0.2,0c-2.4,2.2-3.6,5.4-4.9,8.3c-1.5,3.2-2.9,6.5-4.2,9.8c-2.8,6.8-5,13.9-6.5,21.2c-0.3-0.9-0.7-1.7-1.2-2.4
			c0,0,0-0.1-0.1-0.1c0,0-0.1,0-0.1,0c-1.1,0.3-2.1,0.9-2.8,1.7c2.2-17.8,11.2-34,25.1-45.3C147,92.2,146.6,96.7,145.8,101.1z"/>
		<path class="st14" d="M150.6,109.9c-1.4,4.6-3.8,8.9-6.2,13c-2.4,4.2-5.4,8.1-8.8,11.6c-0.2-0.4-0.5-0.9-0.8-1.2l0,0
			c0,0,0-0.1-0.1-0.1c-0.1,0-0.2,0-0.2,0c0,0,0,0,0,0c-1.2,0.7-2.2,1.7-2.8,2.9c-0.1-0.7-0.3-1.3-0.6-2c3.1-3.7,5.8-7.8,7.9-12.1
			l0,0c2.3-2.8,4.8-5.4,7.4-8c0.1-0.1-0.1-0.3-0.2-0.2c-2.5,2.4-4.8,4.9-7,7.6c1.2-2.4,2.3-4.9,3.3-7.4
			C145,112.2,147.8,110.9,150.6,109.9z"/>
		<path class="st14" d="M123.6,109.2c0.7,2.6,1.1,5.3,1.4,8l0,0c-2,5.2-3.3,10.7-3.9,16.3c-0.2,0.3-0.4,0.6-0.6,0.9
			c-0.3-1.4-1.2-2.7-2.4-3.5c0-0.1-0.1-0.1-0.1-0.1c0,0,0,0-0.1,0c-0.4,0.2-0.8,0.5-1.2,0.8c-0.6-9.6,2.6-19.4,6.4-28.1
			c1.9,2,3.2,4.9,4.6,7.3c-1,1.9-1.8,3.9-2.6,5.9c-0.3-2.5-0.8-5-1.5-7.5C123.7,109.1,123.6,109.1,123.6,109.2z"/>
		<path class="st15" d="M144.9,112.7c-0.8,4.1-3.3,8.1-5.6,11.6c-2.2,3.5-4.9,6.7-7.9,9.6c0.2,0.8,0.2,1.7,0.1,2.5
			c0,0,0,0.1-0.1,0.1c0,0-0.1,0-0.1-0.1c0,0,0,0,0,0c0-0.2,0-0.4,0-0.6c-0.1,0-0.1,0-0.1-0.1l0,0c0,0-0.1,0-0.1-0.1
			c0-0.2,0-0.4-0.1-0.7c-0.1,0-0.1,0-0.1-0.1s0-0.3,0-0.4c0,0-0.1,0-0.1,0c0,0,0,0,0-0.1c0-0.3-0.1-0.7-0.3-1c0,0-0.1,0-0.1,0
			c-0.1-0.2-0.2-0.3-0.2-0.5c-0.1,0-0.1,0-0.1-0.1c0,0,0-0.1,0-0.1h0c-0.1,0.1-0.2-0.1-0.1-0.1c0.2-0.1,0.4-0.1,0.6-0.1l0,0
			c0,0,0.1,0,0.1,0c0.2,0.4,0.4,0.8,0.5,1.2c0.1-0.1,0.1-0.2,0.2-0.2c-0.1-0.1,0-0.1,0-0.2c0.6-0.7,1.2-1.5,1.8-2.2
			c0.3-0.5,0.8-1,1.2-1.5c0-0.1,0-0.1,0-0.2c1.1-1.7,1.9-3.4,3.1-5.1c-0.1,0,0-0.1,0.1-0.2c0.5-0.8,0.9-1.6,1.3-2.4l0,0l0.1-0.2
			c0.2-0.5,0.5-1,0.7-1.5c0.8-1.9,1.4-4.1,2.5-5.8c0.1-0.2,0.1-0.3,0.3-0.5c0.3-0.2,0.7-0.5,1.1-0.7l1-0.6c0.1-0.1,0.2,0,0.1,0.1
			S144.9,112.7,144.9,112.7z"/>
		<path class="st15" d="M127.9,111.1L127.9,111.1c-0.1,0.2-0.2,0.4-0.3,0.6c-0.8,1.9-1.9,3.5-2.4,5.5c0,0.1-0.1,0.1-0.1,0.2
			c-0.8,3.1-2,6-2.7,9.1c0,0.1,0,0.1-0.1,0.2c0,0.6,0,1.2-0.2,1.7c-0.2,0.8-0.3,1.7-0.5,2.6l0,0c0,0.1,0,0.1,0,0.2c0,0,0,0,0,0.1
			c0,0,0,0.1-0.1,0.1c0,0,0,0,0,0.1v0.2c0,0.2,0,0.4,0,0.5c0,0.1,0,0.1-0.1,0.2c0,0,0.1,0.1,0.1,0.2v0.1c0,0,0,0,0,0.1
			c0,0,0,0.1,0,0.1l0,0c0,0.1-0.1,0.2-0.2,0.2l0,0c0,0.1,0,0.3,0,0.4c0,0.1-0.1,0.1-0.1,0.1s0,0.1,0,0.2c0,0.1-0.2,0.1-0.2,0
			c-0.3-4.3,0.1-8.6,1-12.9c0.8-4.2,2.4-8.2,4.8-11.7l0,0c0,0,0-0.1,0.1-0.1c0.1-0.1,0.2,0,0.2,0.1l0,0c0,0,0,0,0,0s0.1,0.2,0.1,0.2
			s0,0,0,0s0,0,0,0.1s0,0,0,0c0,0.1,0.1,0.1,0.1,0.2c0.1,0,0.1,0.1,0.1,0.2c0,0,0,0,0,0.1c0.1,0.1,0.2,0.3,0.3,0.4
			c0.1,0.1,0.2,0.2,0.2,0.4C127.8,110.7,127.9,110.9,127.9,111.1z"/>
		<path class="st15" d="M135.3,133.3L135.3,133.3c-0.1,0-0.2,0-0.2,0.1c0,0-0.1,0-0.1,0l0,0c-0.1,0-0.1,0-0.2,0.1
			c-0.1,0-0.1,0.2,0,0.2l0,0c0,0,0.1,0,0.1,0c0,0,0,0,0,0c0,0,0,0.1,0.1,0.1c0,0,0,0,0,0c0,0,0,0,0,0.1c0,0,0,0.1,0,0.1
			c0,0,0.1,0,0.1,0l0,0c0,0,0,0.1,0.1,0.1c0,0,0.1,0,0.1,0c0,0,0,0,0,0.1c0,0,0,0.1,0.1,0.1c0,0,0,0,0,0l0,0c0,0,0,0.1,0.1,0.1
			c0,0,0,0,0,0l0,0c0,0,0,0.1,0,0.1c0,0,0,0,0,0l0,0c0,0,0,0.1,0.1,0.1c0,0.1,0.1,0.1,0.2,0l0.1-0.1l0,0c0,0,0.1,0,0.1-0.1
			c-0.1-0.4-0.2-0.7-0.4-1C135.4,133.2,135.4,133.2,135.3,133.3C135.3,133.3,135.3,133.3,135.3,133.3z"/>
		<path class="st15" d="M126.7,134.8C126.7,134.8,126.7,134.9,126.7,134.8c-0.1,0.1-0.1,0.1-0.2,0.1c0,0.1-0.1,0.2-0.1,0.2l0,0
			c0,0.1-0.1,0.1-0.1,0.2c0,0.1-0.2,0.1-0.2,0c-0.2-0.7-0.5-1.4-0.7-2.1c-0.1-0.2-0.2-0.5-0.2-0.7h-0.1c0,0-0.1-0.1-0.1-0.2
			c0,0-0.1,0-0.1,0c0,0,0,0,0-0.1l0,0l0,0v-0.1c-0.1,0-0.1,0-0.1-0.1c0-0.1,0-0.1,0.1-0.2c0,0-0.1,0-0.1,0.1c-0.1,0-0.2-0.1-0.1-0.1
			c0.2-0.1,0.4-0.2,0.7-0.2c0.1,0,0.1,0,0.2,0C126.2,132.5,126.6,133.6,126.7,134.8z"/>
		<path class="st15" d="M120.9,134.4C120.9,134.5,120.8,134.5,120.9,134.4c-0.2,0.2-0.3,0.2-0.4,0.1c0,0-0.1-0.1-0.1-0.1
			c0,0,0-0.1,0-0.1c0-0.1,0-0.1,0-0.2c0,0-0.1-0.1-0.1-0.1c0-0.1-0.1-0.2-0.1-0.4c0-0.1,0-0.2,0-0.2c-0.1-0.3-0.2-0.6-0.4-0.8l0,0
			c-0.1,0-0.1-0.1-0.2-0.2c0,0-0.1,0-0.1-0.1c-0.1-0.1-0.1-0.1-0.1-0.2c-0.1,0-0.2-0.2-0.2-0.3c0,0,0,0,0-0.1
			c-0.1,0.1-0.2,0-0.2-0.1c0,0,0-0.1,0-0.1l0,0c0,0-0.1,0.1-0.1,0.1c0,0-0.1-0.1-0.1-0.1c0,0-0.1,0-0.1-0.1c0,0-0.1,0-0.1,0
			c0,0-0.1-0.1-0.1-0.1c0,0,0-0.1,0-0.1c0,0-0.1,0-0.1,0.1c0,0-0.2,0-0.1-0.1c0.2-0.1,0.4-0.3,0.6-0.3l0,0c0,0,0.1,0,0.1,0
			c0.9,0.8,1.5,2,1.6,3.2l0,0v0.1C120.8,134.3,120.8,134.3,120.9,134.4C120.8,134.4,120.9,134.4,120.9,134.4z"/>
		<path class="st14" d="M113.4,176.9c-0.2,1.6,0,3.1-0.1,4.7v0.1c0,0.1,0,0.1-0.1,0.2c-0.1,0.4-0.4,0.7-0.6,1.1
			c-0.2,0.3-0.5,0.6-0.8,0.7c-0.1,0-0.1,0-0.2,0c-0.3,0.2-0.6,0.2-0.9,0.2l0,0c-0.5,0.1-1,0.1-1.5-0.1c-0.5-0.2-1-0.5-1.4-0.8
			c-0.1-0.1-0.1-0.1-0.1-0.2c-0.7-0.7-1.1-1.6-1.4-2.6c-0.1-0.4-0.4-1.1-0.2-1.5c-0.1-0.7-0.1-1.4-0.1-2c-0.1-1-0.1-2,0.1-2.9
			c0-0.1,0-0.2,0-0.4c0-0.1,0-0.1,0.1-0.2c0-0.2,0.1-0.3,0.1-0.5c0.1-0.3,0.2-0.6,0.3-0.9c0,0,0-0.1,0-0.1c0,0,0,0,0-0.1
			c0,0,0.1-0.1,0.1,0c0,0,0.1,0.1,0,0.1c0,0,0,0,0,0.1s0.1,0.1,0.1,0.2c0,0.1,0.5,0.2,0.7,0.1c0,0,0,0,0.1,0c0.1,0,0.2,0,0.1,0.1
			c-0.1,0.1,0,0,0,0v0.1l0,0c0.3-0.1,0.4,0.3,0.2,0.4c0,0.8,0.2,1.5,0.6,2.2c0.6,0.9,1.7,1.9,2.8,1.4c1.5-0.7,1.1-2.9,1.3-4.3
			c0.1-0.3,0.6-0.2,0.5,0.1c0,0.1,0,0.1,0,0.2c0.1,0,0.1,0.1,0.1,0.2c0,0.7,0.1,1.5,0.1,2.2c0,0.3,0,0.6,0,0.9
			C113.6,175.9,113.4,176.5,113.4,176.9z"/>
		<path class="st14" d="M140.7,178.7c0.1-0.5,0.1-1,0-1.5c0-0.1,0-0.2-0.1-0.2c0-0.7-0.2-1.5-0.7-2.1c-0.1-0.2-0.2-0.3-0.2-0.4
			s-0.1-0.2-0.2-0.2c0-0.1,0-0.1,0-0.2c0-0.3-0.5-0.3-0.5,0c0,0.3-0.1,0.6-0.5,0.8c-0.3,0.2-0.7,0.2-1,0c-0.1,0-0.1,0-0.2,0
			c-0.2-0.2-0.4-0.3-0.6-0.3c-0.1,0-0.2,0.2-0.2,0.3c0,0.1,0.1,0.2,0.2,0.2c0.1,0,0.1,0,0.2,0.1c-0.1,0-0.1,0.1-0.1,0.2
			c0,0.4-0.1,0.8-0.2,1.2c-0.1,0.4-0.2,0.8-0.3,1.2c0,0.1,0,0.2,0,0.3c-0.5,1.3-1.8,2.1-3.2,2c-1.4-0.2-2.6-1.1-3.1-2.4
			c0-0.1,0-0.2,0-0.3c0,0,0-0.1,0-0.1c0-0.2-0.1-0.4-0.2-0.5c0-0.1,0-0.3-0.1-0.4c0-0.1,0-0.1,0-0.2c0.1-0.4,0.2-0.8,0.4-0.8
			c0.3,0,0.3-0.6,0-0.5c-0.7,0.1-0.9,0.9-1,1.5c0,0-0.1,0-0.1,0.1c0,0.1-0.1,0.2-0.1,0.3c0,0.1-0.1,0.3-0.1,0.5c0,0.1,0,0.3,0,0.4
			c0,0.2,0,0.5,0,0.7c0,0.1,0,0.1,0,0.1c0,0.4,0,0.9,0,1.4c0,0,0,0.1,0,0.1c0,1.1,0,2.2-0.1,3.3c0,0.2,0,0.4,0,0.5c0,0,0,0.1,0,0.1
			c0,0.3,0.1,0.4,0.2,0.6c0.1,0.2,0.2,0.5,0.3,0.8c0,0.1,0,0.1,0,0.2c0.2,0.3,0.4,0.6,0.7,0.8c0.8,1.5,3.7,1.9,5.2,1.7
			c1.8-0.2,3.9-1.3,4.6-3.1c0,0,0.1-0.1,0.1-0.1c0.2-0.3,0.4-0.6,0.5-1c0.2-0.5,0.4-1.1,0.4-1.6c0-0.1,0-0.1-0.1-0.1
			c0-0.1,0-0.2,0-0.3c0.1-0.4,0.2-0.8,0.1-1.2c0-0.2,0-0.4,0-0.6c0-0.4,0-0.7,0-1.1C140.8,178.8,140.8,178.8,140.7,178.7z"/>
		<path class="st16" d="M113.5,177c-0.8,2.2-2.2,3.2-4.5,2.2c-2.5-1.1-2.7-4.2-2.7-6.6c0-0.1,0-0.2,0.1-0.1c0.1,0,0-0.1,0.1-0.1
			c0-0.1,0-0.2,0.1-0.3c0-0.1,0.1-0.2,0.2-0.3c0,0,0-0.1,0-0.1s0.2-0.1,0.2,0l0,0c0,0,0,0.1,0,0.1l0,0h0.1c0.2,0.2,0.5,0.5,0.8,0.2
			c0.1-0.1,0.2,0.1,0.1,0.1l0,0c0,0,0.1,0.1,0.1,0.1c-0.1,1,0.2,2.1,0.7,3c0.4,0.9,1.3,1.5,2.4,1.5c0.3-0.2,0.6-0.3,0.9-0.4
			c0.5-0.6,0.8-1.3,1-2c0.1-0.8,0.2-1.5,0.4-2.3v0c0,0,0,0,0,0.1c0.6,1.1,0.3,2.6,0.2,3.8v0.4l0,0c0,0.2,0,0.4,0,0.6
			C113.4,176.9,113.5,177,113.5,177z"/>
		<path class="st16" d="M140.8,177.6c-0.5,6.3-9,8.2-11.7,2.3c0,0-0.1-0.1-0.1-0.1c-0.2-0.6-0.3-1.3-0.2-2c0-0.3,0-0.6,0.1-0.9
			c0.1-0.6,0.3-1.1,0.7-1.6c0-0.1,0.1-0.1,0.2-0.1c0,0,0,0,0.1,0.1c0.4,2,1,4,3.2,4.6c0.3,0.1,0.6,0.1,1,0.1l0,0h0.2l0.3-0.1
			c1.7-0.5,2.2-2.8,2.3-4.5c0-0.2,0.2-0.3,0.3-0.2c0,0,0,0,0,0c0-0.1,0-0.3,0-0.5c0-0.1,0-0.1,0.1-0.1c0.1,0,0.1,0,0.1,0.1
			c0,0,0,0,0,0l0,0l0,0c0.1,0.1,0.3,0.2,0.4,0.3c0.3,0.1,0.6,0.1,0.8,0c0.3-0.2,0.6-0.6,0.6-1c0.1-0.3,0.5-0.2,0.4,0.1l0,0
			c0.1,0,0.2,0.1,0.2,0.2c0,0.1,0.1,0.3,0.1,0.4c0.1,0,0.2,0,0.2,0.1c0.2,0.5,0.3,1,0.4,1.5c0.2,0.1,0.3,0.4,0.2,0.6c0,0,0,0,0,0.1
			C140.8,177.2,140.8,177.4,140.8,177.6z"/>
		<path class="st17" d="M136.5,177.9c-0.1,0.3-0.2,0.5-0.3,0.7l0,0c-0.2,0.3-0.4,0.6-0.8,0.8c-0.8,0.7-1.9,0.8-2.8,0.3
			c-0.4-0.1-0.8-0.3-1.2-0.6c-0.9-0.7-1.5-1.9-1.6-3.1c0-0.2,0-0.5,0-0.7c-0.1,0-0.1-0.1-0.1-0.2c0.2-1.5,1.8-2.2,2.9-2.8
			c0,0,0,0,0.1,0c0.1-0.1,0.2-0.1,0.3-0.1c0.1-0.2,0.4-0.3,0.9-0.3c0.9-0.2,1.8-0.1,2.7,0.2c0.1,0,0.1,0,0.2,0
			c0.1,0,0.2,0.1,0.1,0.2c0,0,0,0,0,0c0.3,1,0.3,2,0.2,3l0,0C137.1,176.3,136.9,177.2,136.5,177.9z"/>
		<path class="st17" d="M112.9,171.9c0,0.6,0,1.1-0.1,1.7c0,1-0.5,2-1.4,2.6c0,0,0,0.1-0.1,0.1c-0.5,0.4-1.1,0.4-1.9,0
			c-1.2-0.2-2-3.7-1.5-5.5c0,0,0,0,0,0c0-0.2,0-0.4,0.1-0.5c0,0,0-0.1,0-0.2c0.3-0.2,0.6-0.4,1-0.4h0.1c0.6-0.3,1.6,0,2.2,0.2
			c0.8,0.3,1.4,1,1.7,1.8C113,171.7,112.9,171.8,112.9,171.9C112.9,171.9,112.9,171.9,112.9,171.9z"/>
		<path class="st18" d="M133.9,178.5c-2.7,0.6-3.5-2.6-3.6-4.6c0-0.1,0.1-0.1,0.1-0.1c0-0.1,0.1-0.1,0.2-0.1c0,0,0-0.1,0.1-0.1
			c0.5-0.6,1.2-1.1,1.9-1.4c0.5-0.3,1-0.4,1.5-0.5c0.4-0.1,0.8-0.2,1.2,0h0.3c0.1-0.1,0.2-0.1,0.3,0c0,0,0,0.1,0.1,0.1
			C136.6,173.9,136.5,177.9,133.9,178.5z"/>
		<path class="st18" d="M112.2,170.5L112.2,170.5c-0.5-0.5-1.2-0.8-1.9-0.8c-0.3,0-0.6,0-0.9,0c0,0-0.1,0-0.1,0l0,0
			c-0.1,0-0.1,0-0.2,0.1c-0.1-0.1-0.3,0-0.3,0.1c0,0,0,0,0,0c0,0-0.1-0.1-0.1-0.1c0,0,0,0-0.1,0.1c-0.4,1.4-0.7,5.3,1.5,5.6
			c2,0.2,2.4-3.3,2.4-4.7C112.5,170.5,112.3,170.3,112.2,170.5z"/>
		<polygon class="st18" points="227.9,288.7 227.9,288.6 227.9,288.7 		"/>
		<path class="st18" d="M271.5,218c0.1-0.1,0.2-0.2,0.2-0.4c0.1-0.1-0.2-0.4-0.3-0.2l-0.1,0.1c0,0-0.1,0.1-0.1,0.1
			c-5.8,7.9-14.1,13.6-23.6,15.9c-1.6,0.4-3.3,0.8-4.9,1c-0.8,0.1-6.8,1.3-6.4-1l0,0c0.7-1.5,4.7-1.6,5.9-1.8
			c1.7-0.3,3.4-0.8,5.1-1.3c3.3-1.1,6.4-2.6,9.3-4.4c5.8-3.6,10.6-8.5,14.2-14.4c0.1-0.1,0-0.2-0.1-0.3c0,0,0,0,0,0c0,0,0,0,0-0.1
			c-0.9-4-2.1-7.9-3.6-11.7c-1.9-4.1-4.2-8-6.8-11.7c0-0.1,0-0.2-0.1-0.2c0,0,0,0,0,0l0,0c0,0-0.1,0-0.1,0c0,0,0,0,0,0l0,0
			c-8.6,12.7-21.1,22-34.2,29.7c-12.7,7.6-27.1,11.9-41.7,13.6c-5.8,0.7-11.6,1-17.4,0.9c-0.6-1.9-1.9-3.5-3.7-4.5
			c-2.3-1.5-5.5-1.9-7.6-3.7c-1.7-1.4-0.8-3.7,0.2-5.3c0.8-1.3,1.7-2.4,2.8-3.4c2-1.8,4.1-3.2,6.5-4.4c4.6-2.4,9.4-4.4,13-8.2
			c3.1-3.4,5.3-7.5,6.2-12c1-5,0.1-10.1-1.6-14.9c-1-2.7-2.8-5.5-2.6-8.5c0.2-3,1.4-5.7,1.8-8.6c1.4-10.1-0.9-20.4-6.5-29
			c-5.9-8.7-14.9-14.9-25.2-17.1c0.3-0.9,0.6-1.8,0.8-2.8c0.1,0,0.1-0.1,0.1-0.2c0,0,0-0.1-0.1-0.1h-0.1h-0.1
			c-1.7,0.5-3.3,1.2-4.8,2.1l0,0c0,0-0.1-0.1-0.1,0c-0.8-0.1-1.5-0.1-2.3-0.1c1.1-3.4,1.9-6.8,2.5-10.3c0.9-4.4,1.2-9,0.9-13.5
			c0,0,0-0.1,0-0.1c0-0.1-0.1-0.1-0.1-0.1c0,0-0.1,0-0.1,0c-7.8,6.2-14.2,14.1-18.6,23c-0.8-1.4-1.7-2.8-2.5-4.2
			c-0.6-1.1-1.3-2.1-2.2-3l-0.1-0.1l0,0c-0.1-0.1-0.2,0.1-0.1,0.1l0,0c-2.4,4.9-4.2,10.1-5.5,15.5c0,0,0,0,0,0.1
			c-1,4.3-1.4,8.7-1.1,13l0,0l0,0c-0.9,0.8-1.5,1.9-1.8,3.1c0,0.1,0.1,0.2,0.2,0c0.5-1.7,1.6-3.1,3.2-3.9c1.4,0.9,2.2,2.8,2.4,4.4
			c0,0.2,0.3,0.1,0.3-0.1c0-0.2-0.1-0.4-0.1-0.6l0,0c0.2-0.4,0.4-0.7,0.6-1c0.1-0.1,0.1-0.2,0.2-0.3c0.8-0.9,1.8-1.5,2.9-1.9l0,0
			c0.5,0.8,0.9,1.7,1.2,2.5l0,0l0,0v0c0.2,0.7,0.4,1.5,0.5,2.2c0,0.2,0.3,0.1,0.3-0.1c0-0.2-0.1-0.6-0.2-0.8
			c0.9-1.2,2.1-2.5,3.6-2.9c0.3,0.5,0.5,1,0.7,1.5l0,0c0,0.1,0,0.1,0.1,0.2l0,0c0.3,0.8,0.5,1.6,0.7,2.4c0,0.2,0.3,0.1,0.3,0
			c0,0,0-0.1,0-0.1c0.8-1.2,1.8-2.2,3-3c1,1.2,1.5,2.7,1.4,4.2c0,0.2,0.3,0.2,0.3,0c0.1-1-0.1-2-0.5-3c0,0,0,0,0.1,0
			c3.4-3.5,6.4-7.4,8.9-11.7c2-3.3,3.8-6.7,5.3-10.3c9.8,2.1,18.4,7.8,24.2,15.9c6.3,9,8.8,20.1,7,30.9c-0.4,2.4-1.2,4.6-1.6,7
			c-0.4,2.7,0.8,5,1.8,7.4c2.1,5.3,3.4,11,2.2,16.7c-1,5-3.6,9.5-7.4,12.9c-4,3.6-9.2,5.4-13.8,8.1c-2.2,1.2-4.1,2.8-5.8,4.7
			c-1.2,1.5-2.8,3.7-2.7,5.7c0,2,2.7,3,4.3,3.6c3.2,1.3,6.8,2.7,8,6.2c-2.1,0-4.2-0.1-6.3-0.2c0.4-0.2,0.8-0.3,1.2-0.5
			c0.2-0.1,0.1-0.4-0.1-0.3c-1.5,0.5-2.9,1.2-4.2,2.1c-0.2-0.3-0.4-0.6-0.6-0.9c-0.1-0.1-0.3,0-0.2,0.1c1.8,2.5,2.5,5.4,3.1,8.3
			c-2.2-0.1-5.5-0.1-7.4,1.2c-0.1-0.3-0.2-0.6-0.4-0.9c0-0.1-0.3,0-0.2,0.1c1,2.7,1.5,5.5,1.6,8.3c-1.3-1.9-4.2-2.9-6.3-3.6h-0.1
			c0-0.2,0-0.3-0.1-0.5c0-0.2-0.2-0.1-0.2,0.1c1.1,5.6-1.2,11.8-3.9,16.6c0,0,0,0-0.1-0.1c-2.4-1.8-4.5-4.2-5.9-6.9
			c0-0.1,0-0.1-0.1-0.2l0,0c-0.1-0.3-0.2-0.5-0.3-0.8c0-0.1-0.1-0.1-0.1-0.1c-0.1,0-0.1,0.1-0.1,0.1c0.1,0.3,0.2,0.7,0.3,1
			c-1.2,2.4-1.9,5-2.1,7.6c-3.3-2.6-5.9-5.9-7.6-9.7c-0.1-0.1-0.3,0-0.2,0.1c0.1,0.3,0.2,0.6,0.3,0.8c0,0-0.1,0-0.2,0
			c-1.7,2-2.9,4.3-3.7,6.8c-2-3.1-3.4-6.5-4.1-10.2c0-0.2-0.3-0.1-0.3,0.1s0.1,0.4,0.1,0.6c-2.5,2-4.4,4.7-5.2,7.8
			c-1.9-2.2-2.7-5-3.7-7.7l0,0v0l0,0c-0.1-0.2-0.2-0.5-0.3-0.7c0-0.1-0.2-0.1-0.2,0.1c0.1,0.2,0.1,0.4,0.2,0.7
			c-2.4-0.1-5.4,1.6-7.3,3c4.5-10.7,11.7-20.1,20.9-27.2c1.4-1,3.5-2,4.3-3.6c1.3-2.5-0.6-5-3.1-5.4c0.2,0,0.4-0.1,0.5-0.1
			c2.9-0.5,5.8-0.2,8.7-0.7c2.7-0.5,5.3-1.4,7.7-2.7c1.3-0.7,3.8-1.8,3.1-3.7c0-0.1-0.2,0-0.1,0c1,2.5-6,4.8-7.5,5.3
			c-2.7,0.8-5.5,1.2-8.3,1.2c-1.5,0-3,0.2-4.5,0.6l-0.4,0.1c-2.6,0.8-5,2.1-6.9,4.1c-0.5-2.9-0.2-5.9,1-8.6l0,0
			c0.4-0.3,0.8-0.6,1.2-0.8c-1.3,2.4-2,5.2-1.9,7.9c0,0,0.1,0.1,0.1,0.1c0,0,0,0,0.1-0.1l0,0c1.1-1.3,2.4-2.4,3.8-3.3
			c1.1-0.7,2.2-1.2,3.3-1.9c2-1.4,3.6-3.2,4.8-5.3l0,0l0,0l0.7-0.2c6.1-1.5,11.5-5,15.3-10c0.1-0.1,0-0.2-0.1-0.2s0,0,0,0
			c0,0-0.1,0-0.1,0c-1.7,1.8-4.3,2.5-6.7,1.7c-2.2-0.7-3.2-2.7-4.8-4.2c-1.1-1.1-2.5-2-3.9-2.7c-1-0.6-2-1-2.6-2.1
			c-0.4-0.8-0.6-1.7-1-2.4c-2.5-4.3-8.5-3.4-10.6,0.5c0,0,0,0-0.1,0c-1.1,1.4-2.3,2-3.9,2.8c-0.8,0.4-1.5,1-2,1.7
			c-1.4,1.7-1.8,3.9-1.2,6c0,0,0,0.1,0.1,0.1c-0.3,0.7-0.7,1.3-0.9,2l0,0l0,0c-4.2-3.6-7.1-8.6-8-14.1c-0.5-3.1-0.4-6.2,0.3-9.2
			c0.7-3,1.8-5.9,2.2-8.9c0.4-3.1-0.2-5.8-1-8.7c-0.8-3.1-1.2-6.3-1.2-9.6c0-6.5,1.8-12.8,5-18.5c3.4-5.8,8.2-10.7,13.4-15
			c0.2-0.1-0.1-0.4-0.2-0.2c-9.6,7.8-17.2,17.7-18.3,30.4c-0.3,3.1-0.2,6.2,0.3,9.3c0.6,3.6,2,7,1.8,10.7c-0.2,3.7-1.6,7.2-2.4,10.7
			c-0.6,2.6-0.7,5.3-0.4,8c0.8,6,3.7,11.4,8.3,15.3c0.1,0,0.1,0,0.2,0l0,0c-2.2,6.2-0.6,13.7,5,17.7c0.1,0,0.1,0,0.2,0c0,0,0,0,0,0
			c0.1,0,0.1,0,0.1-0.1c0.9-2.8,2.7-5.3,5-7.1l0,0c-1.3,2.7-1.6,5.8-1,8.7v0.2c0,0,0.1,0.1,0.1,0.1c0,0,0,0,0,0l0,0v0
			c1.9-2,4.3-3.4,6.9-4.3l0,0c0,0,0.1,0,0.1,0c1.7,0,3.1,1.1,3.7,2.7c0.4,1.7-0.5,3-1.8,3.9c-0.8,0.7-1.7,1.3-2.6,1.9l0,0
			c0,0-0.1-0.1-0.1-0.1c-22.1-7.7-41.4-22.9-54.6-42.2c-3.6-5.3-6.8-10.9-9.5-16.8c0-0.1-0.1-0.1-0.1-0.1c0-0.1-0.1-0.1-0.2-0.1
			c0,0-0.1,0-0.1,0.1c-5,7.1-9.7,14.5-11.8,23c0,0.1,0,0.2,0.1,0.2c0,0,0,0,0.1,0c4.8,8.7,11.7,17.3,20.2,22.7c0,0,0.1,0,0.1,0
			c0.5,0.5,0.6,1.3,0.1,1.8c-0.1,0.1-0.1,0.1-0.2,0.2c-0.6,0.4-1.4,0.4-1.9-0.1l0,0c0,0,0-0.1-0.1-0.1c-7.7-5-14.2-11.6-19.2-19.3
			c0-0.1-0.1-0.1-0.2-0.1c0,0,0,0-0.1,0.1c0,0-0.1,0-0.1,0c0,0,0,0,0,0c-1.4,7.3-1.7,14.8-0.6,22.1c0,0.1,0.1,0.2,0.2,0.2
			c0,0,0.1,0,0.1,0c3.6,4.1,7.7,7.6,12.3,10.5c4.6,3,9.4,5,14.5,7h0.1c0.3,0.2,0.3,0.7,0.1,1c-0.2,0.3-0.6,0.3-0.9,0.2
			c0,0-0.1-0.1-0.1-0.1c-9.2-2.5-17.8-7.1-24.9-13.5c-0.1-0.1-0.2-0.1-0.2,0c0,0,0,0,0,0c-0.1-0.1-0.2,0-0.2,0.1
			c1.1,3.8,2.2,7.6,3.6,11.3c1.4,3.4,3.1,6.7,5,9.9l0,0c0,0,0,0.1,0.1,0.1c7.8,2.6,16.1,4.5,24.4,4.4c0,0,0.1,0,0.1-0.1l0,0
			c0.3,0.1,0.5,0.3,0.6,0.5c0.1,0.3,0,0.6-0.3,0.8c-0.2,0.1-0.4,0.1-0.7,0.1c-0.1,0-0.1,0-0.1,0.1c-7,0.6-14.1-0.4-20.9-2
			c-0.1,0-0.1,0-0.1,0.1c0,0,0,0.1,0,0.1h0.1c3.8,5.5,8.6,10.3,14.1,14.2c0,0.1,0.1,0.1,0.1,0.1h0.1c1.4,1.2,2.9,2.3,4.5,3.1
			c1.9,1.2,3.9,2.2,5.8,3.2h0l0,0c0,0,0.1,0,0.2,0l0.2-0.1c2.3,1.9,5.5,2.6,8.2,3.5h0c0,0.1,0.1,0.1,0.2,0.1c0,0,0.1,0,0.1-0.1
			l0.1-0.1c0.8,0.6,1.8,1,2.7,1.1c1.3,0.4,2.6,0.7,3.9,0.8c-0.4,5.7-0.2,11.5,0.8,17.2c-5.8,0.3-11.5,0.7-17.2,1.5
			c0,0-0.1,0-0.1,0.1l0,0c-0.6,0.6-1.1,1.2-1.4,2c-0.4,0.8-0.9,2.2-1.7,2.7c-0.2,0.5-0.4,0.5-0.7-0.1c-0.1-0.1-0.2-0.2-0.3-0.4
			c-0.3-0.3-0.6-0.6-0.9-0.8c-0.7-0.7-1.3-1.5-1.8-2.4c0-0.1,0-0.3-0.2-0.2c-12,1.2-24,2.9-35.9,5c0,0-0.1,0-0.1,0.1
			c-0.4-0.1-0.7,0-1.1,0.1c-0.4,0-0.9,0.2-1.2,0.4c0,0.1,0,0.1,0,0.2h-0.3c3.6,57.3,51.1,102,108.6,102c6,0,12.1-0.5,18.1-1.5
			l0.5-0.1c45.5-7.9,81-43.6,88.7-89.2c0-0.1,0-0.1,0-0.2c0.2-1.4,0.4-2.8,0.6-4.2c0,0,0-0.1,0-0.1c0.2-1.8,0.4-3.7,0.5-5.6l0,0
			c0.1-0.1,0.1-0.2,0.1-0.3c0-0.1,0-0.2-0.1-0.3c0,0,0,0-0.1,0l-0.5-0.2c-3.7-1.2-7.6-2-11.5-2.5l-1.1-0.1c-1.4-0.2-2.9-0.4-4.3-0.5
			l-1.8-0.2h-0.1l-1.7-0.2h-0.1l-15.1-1.9c-12.6-1.6-25.4-3.5-38.1-3.2c-0.2-0.7-0.4-1.5-0.6-2.2c-0.4-1.5-0.9-2.9-1.4-4.3
			c1.8,0.6,3.6,1,5.4,1.3c1,0.2,2.3,0.6,3.3,0.1c0.1,0.1,0.2,0.2,0.3,0.2c0,0,0,0.1,0,0.1c0,0,0,0,0,0c2.3,0.5,4.6,0.8,6.9,1
			c1.4,0.1,3.9,0.8,5-0.3l0,0c0.1,0.2,0.1,0.3,0.2,0.5c0,0.1,0.1,0.1,0.2,0.1c0,0,0,0,0,0c2.8,0.2,5.7,0.2,8.5,0
			c2.6,0,5.1-0.2,7.6-0.7l0,0l0.2,0.2c0.1,0.1,0.2,0.1,0.2,0c0,0,0,0,0,0c2.4-0.1,4.7-0.4,7.1-0.9c2.5-0.4,4.9-1,7.4-1.6
			c2.5-0.6,4.9-1.3,7.3-2.1c1.1-0.3,2.8-0.6,3.7-1.3c0.4-0.3,0.4-0.1,0.6-0.6c0.1-0.2-0.2-0.3-0.4-0.1c-7.5-1.4-13.7-5-19.3-10.1
			l0,0c-0.1-0.1-0.2-0.2-0.3-0.4c-0.2-0.4-0.1-0.8,0.1-1.1c0.3-0.5,1.1-0.7,1.6-0.3c0,0,0.1,0,0.1,0.1c0.1,0.1,0.2,0.1,0.3,0.2l0,0
			c2.9,2.9,7.3,4.6,11,5.9c4.6,1.7,9.4,2.5,14.3,2.5h0.1c0.1,0.1,0.2,0.1,0.2,0c3.9-3.7,7.6-7.8,10.9-12c3.2-4.4,5.9-9.1,8.1-14.1
			l0.4-0.2c0.2-0.1,0-0.4-0.2-0.3l-0.2,0.1l0,0l-0.1,0.1l0,0c-9.7,6.1-23.1,8.7-34.1,4.9c-0.4-0.3-0.6-0.9-0.5-1.4
			c0.2-0.8,1-0.8,1.7-0.7c12,2.8,24.7,0.3,34.8-6.9c0.1,0,0.1-0.1,0.1-0.2l0,0c0.1,0,0.1-0.1,0.1-0.1c1.5-4.8,2.4-9.8,2.9-14.8
			c0.2-2.6,0.3-5.2,0.3-7.8C272.1,222.1,272,220,271.5,218z M145.6,111.8L145.6,111.8c-1,0.6-1.9,1.2-2.9,1.9l0,0
			c0.3-0.6,0.5-1.3,0.7-1.9C144.2,111.7,144.9,111.7,145.6,111.8z M120.6,134.4L120.6,134.4c-0.3-1.4-1.2-2.7-2.4-3.5
			c0-0.1-0.1-0.1-0.1-0.1c0,0,0,0-0.1,0c-0.4,0.2-0.8,0.4-1.2,0.7c-0.6-9.6,2.6-19.4,6.4-28.1c1.9,2,3.2,4.9,4.6,7.3
			c-1,1.9-1.8,3.9-2.6,5.9l0,0c-0.3-2.5-0.8-5-1.5-7.5c0-0.1-0.1-0.1-0.1,0c0.7,2.6,1.1,5.3,1.4,8l0,0c-2,5.2-3.3,10.7-3.9,16.3
			C121,133.7,120.8,134.1,120.6,134.4z M130.1,132.3C130.1,132.3,130,132.3,130.1,132.3c-1.6,0.2-2.9,1.7-3.8,3
			c-0.1-0.4-0.2-0.7-0.3-1.1c1.9-6.8,3.7-13.6,6.3-20.2c1.3-3.4,2.7-6.8,4.3-10.1c1.5-3.2,2.9-6.5,5.3-9.1c0,0,0-0.1,0-0.2
			c0,0-0.1,0-0.2,0c-2.4,2.2-3.6,5.4-4.9,8.3c-1.5,3.2-2.9,6.5-4.2,9.8c-2.8,6.8-5,13.9-6.5,21.2c-0.3-0.9-0.7-1.7-1.2-2.4
			c0,0,0-0.1-0.1-0.1l0,0c0,0-0.1,0-0.1,0c-1.1,0.3-2.1,0.9-2.8,1.7c2.2-17.8,11.2-34,25.1-45.3c0.2,4.5-0.1,8.9-0.9,13.3
			c-0.6,3.5-1.5,7-2.6,10.4c0,0.1-0.1,0.1-0.1,0.2c-0.2,0.4-0.3,0.8-0.5,1.3c-2.9,7.2-6.5,14.9-11.8,20.7l0,0
			C130.7,133.2,130.4,132.8,130.1,132.3C130.2,132.3,130.1,132.3,130.1,132.3L130.1,132.3z M144.4,122.9c-2.4,4.2-5.4,8.1-8.8,11.6
			c-0.2-0.4-0.5-0.9-0.8-1.2l0,0l-0.1-0.1l0,0c-0.1,0-0.2,0-0.2,0c0,0,0,0,0,0c-1.2,0.7-2.2,1.7-2.8,2.9c-0.1-0.7-0.3-1.3-0.6-2
			c3.1-3.7,5.8-7.8,7.8-12.2l0,0c2.3-2.8,4.8-5.4,7.4-8c0,0,0-0.1,0-0.2c0,0-0.1,0-0.2,0l0,0c-2.5,2.4-4.8,4.9-7,7.6
			c1.2-2.4,2.3-4.9,3.3-7.3l0,0c2.5-1.8,5.2-3.2,8-4.2C149.2,114.5,146.8,118.8,144.4,122.9L144.4,122.9z M122.4,215.9
			c-2.1,1.1-4,2.6-5.6,4.4c0-2.7,0.6-5.4,1.9-7.8c3-1.8,6.3-1.9,9.6-2.6C126.8,212.4,124.8,214.4,122.4,215.9z M111.9,220.5
			c-7.3-5-7.3-15.4-2.3-22c0.1-0.1-0.1-0.2-0.1-0.1c-0.6,0.7-1,1.4-1.5,2.2c-0.9-2.8,0.3-5.7,2.8-7.1c1.5-0.9,2.7-1.4,3.8-2.7
			c-0.2,0.4-0.3,0.8-0.4,1.2c0,0,0.1,0.1,0.1,0c1.3-4.2,6.3-6.7,9.9-3.3c1.3,1.2,1.4,2.8,2.3,4.1c0.8,1.1,2.3,1.6,3.4,2.3
			c1.6,1,3,2.2,4.2,3.7c0.8,1.1,1.8,2,3,2.6c2.2,0.9,4.7,0.6,6.6-0.8c-4.5,5.9-11.5,8.7-18.7,9.7C119,211,113.9,214.7,111.9,220.5z
			 M94.2,273.8c-1.1-0.2-2.2-0.6-3.2-1.2c1.5-2.3,3.5-4.5,4.4-7c0-0.1-0.1-0.1-0.1,0c-1.3,2.5-2.9,4.9-4.7,7.1h-0.1
			c-2.8-0.8-5.8-1.7-8.2-3.3c3.1-2,6.1-4.4,8.7-7c0,0,0-0.1,0-0.1c0,0-0.1,0-0.1,0l0,0c-2.7,2.6-5.7,5-9,7.1
			c-3.5-1.7-7.3-3.6-10.2-6.1c2.5-0.4,4.9-1.1,7.3-1.9c2.6-0.8,5-1.9,7.4-3.3c0.1-0.1,0-0.2-0.1-0.2c-4.6,2.2-9.7,4.6-14.9,5.1
			c-3.5,0.3-3.5,0.3,0,0c-5.5-3.9-9.7-8.8-14-13.9c6.8,1.6,13.8,2.6,20.8,2c0,0,0.1,0,0.1-0.1c0.5,0.1,1.1-0.3,1.2-0.8
			c0.1-0.5-0.3-1.1-0.8-1.2c-0.1,0-0.2,0-0.3,0c0,0-0.1,0-0.1,0c-8.1-0.2-16.2-1.7-23.9-4.3c0,0,0-0.1,0-0.1
			c-2-3.3-3.8-6.8-5.2-10.4c-1.3-3.4-2.3-7-3.4-10.5c7.1,6.4,15.6,11,24.8,13.5l0,0c0.5,0.3,1.1,0.2,1.4-0.3c0,0,0.1-0.1,0.1-0.1
			c0.2-0.4,0-1-0.4-1.2c0,0,0-0.1-0.1-0.1c-5-2-9.8-4-14.4-7c-4.5-3-8.7-6.6-12.4-10.6h0c-0.8-7.3-0.6-14.6,0.5-21.8
			c4.9,7.7,11.4,14.3,19.1,19.4l0,0c0.7,0.7,1.8,0.7,2.5,0.1c0.6-0.5,0.6-1.5,0.1-2.1c-0.1-0.1-0.2-0.2-0.4-0.3l0,0
			c-4.1-2.9-7.9-6.3-11.2-10.1c-3.3-3.9-6.2-8.1-8.9-12.5c2.1-8.4,6.8-15.7,11.6-22.7c9.4,21.4,26.2,39.4,46.4,51
			c5.7,3.2,11.6,6,17.8,8.2l-1.2,1c-2.9,2.4-5.7,5.1-8.2,7.9c-4.9,5.5-8.7,11.8-11.4,18.6l0,0l0,0c0,0.1,0,0.2,0.1,0.2
			c0,0,0.1,0,0.1,0c0.5-0.3,0.9-0.6,1.4-0.9c-3.2,6.4-5.2,13.4-5.7,20.6C96.4,274.3,95.3,274.1,94.2,273.8z M37.2,299.6
			c0.3,0,0.7,0,1-0.2c0,0,0.1,0,0.1,0c11.9-1.8,23.8-3.6,35.8-4.8c0.2,0.9,0.8,1.7,1.5,2.3c0.5,0.5,1,0.9,1.5,1.5
			c0.1,0.2,0.3,0.6,0.6,0.6c0.6,0,1-0.9,1.3-1.3c0.8-1.2,1.3-2.9,2.4-3.9c0,0,0-0.1,0.1-0.1c5.7-0.6,11.4-1.1,17.1-1.4
			c1,5.5,2.5,10.8,4.6,15.9c0,0,0,0,0,0.1c-1.7-0.1-3.3-0.3-4.9-0.4l-4.4-0.4l-4-0.4l-3-0.3c-2.4-0.2-4.7-0.5-7-0.7l0,0l-2.5-0.3
			l-3.8-0.4c-3.1-0.3-6.2-0.7-9.3-1.1l0,0l-0.6-0.1c-8.3-1-16.6-2.2-24.9-3.4l0,0c-0.5-0.1-1-0.2-1.5-0.3c-0.4-0.2-0.7-0.3-1.1-0.4
			c0-0.1,0-0.1,0-0.2C36.5,299.8,36.8,299.7,37.2,299.6z M245.9,329.8L245.9,329.8c-13.2,36.5-44.9,63.1-83.1,69.9l0,0
			c-58.8,10.3-114.9-29-125.3-87.8c-0.7-3.8-1.1-7.6-1.4-11.4c0.2,0.2,0.5,0.3,0.8,0.4c0.6,0.2,1.1,0.3,1.7,0.4l0,0
			c8.3,1.2,16.5,2.4,24.8,3.4c2,0.2,3.9,0.5,5.8,0.7l0.4,0.1c1.8,0.2,3.6,0.4,5.4,0.6l3.2,0.4l0.8,0.1l1.1,0.1l0.9,0.1
			c2.8,0.3,5.6,0.6,8.5,0.8c3.7,0.4,7.4,0.7,11.2,1l3,0.2c7.4,0.6,14.8,1.1,22.2,1.5c4,0.2,8,0.4,12,0.6c3.8,0.1,7.6,0.1,11.2-1.1
			c1.1,2.1,2.5,4,4.1,5.7c0.8,0.9,2.2,3.3,3.7,2.9c1.5-0.4,3-2.5,3.9-3.7c1.2-1.5,2.1-3.2,2.8-5c0,0,0.1,0.1,0.1,0.1
			c4,0,8-0.1,12-0.2c0.6,0,1.2,0,1.8-0.1l3.6-0.1l1.9-0.1c7.7-0.4,15.3-0.9,23-1.6c0.6-0.1,1.2-0.1,1.8-0.2c0.3,0,0.7-0.1,1-0.1
			l1.5-0.1l3-0.3h0.1c1.7-0.2,3.4-0.4,5.2-0.6c0.2,0,0.3,0,0.5-0.1l2.1-0.2c2.4-0.3,4.8-0.6,7.2-0.9c4.2-0.6,8.3-1.2,12.4-1.9
			c3.3-0.6,6.6-1.1,9.8-1.7c0.1,0,0.1,0,0.1-0.1c0.3,0,0.5,0,0.8,0c0.2,0,0.4,0,0.6-0.1C251.2,311,249.2,320.6,245.9,329.8z
			 M215.7,295l18.2,2.3c6.1,0.8,12.2,1.4,18,3.4c-0.4,0.1-1,0.1-1.4,0.2l0,0c-0.1,0-0.1,0-0.2,0c-10,1.8-20,3.3-30,4.5
			c-13.4,1.6-26.8,2.7-40.3,3.3c0.2-5.7-0.3-11.5-1.7-17.1C190.8,292.3,203.2,293.5,215.7,295L215.7,295z M271.4,231.8
			c-0.5,5-1.5,9.9-2.9,14.7c0,0,0,0.1,0,0.1l0,0c-10,7-22.6,9.6-34.6,7c-0.1-0.1-0.3-0.1-0.5-0.1h-0.2c-0.1,0-0.1,0-0.1,0
			c-0.5,0-1,0.4-1.2,0.8c-0.2,0.6-0.1,1.3,0.4,1.8c0,0,0,0.1,0,0.1h0.1c0.2,0.2,0.4,0.3,0.6,0.3c0,0,0.1,0,0.1,0
			c5.3,2,11.4,1.8,16.9,1c5.8-0.7,11.4-2.7,16.4-5.8c-2.2,4.6-4.8,9-7.7,13.2c-3.3,4.5-7.2,8.5-11.2,12.4c0,0-0.1,0-0.1,0
			c-9,0.1-17.8-2.8-25.1-8.2l0,0c-0.4-1-1.9-0.6-2.4,0c-0.3,0.4-0.4,0.8-0.3,1.2c0,0.2,0.1,0.3,0.2,0.5c0.1,0.1,0.1,0.1,0.2,0.2
			l0.1,0.1l0,0l0,0l0,0c0,0,0,0.1,0,0c4.9,5.4,12,8.8,19,10.1c-1,0.5-2,0.9-3.1,1.1c-1,0.3-2.1,0.7-3.1,1c-2.1,0.6-4.2,1.2-6.3,1.7
			c-2,0.5-4.1,0.9-6.1,1.3c-2.2,0.4-4.5,0.5-6.7,1l0,0c-2.7-3.5-4.7-7.5-6-11.7c0-0.1-0.1-0.1-0.1-0.1c-0.1,0-0.1,0.1-0.1,0.1
			c1.2,4,3.1,7.8,5.6,11.2c-5.1,1.3-10.7,0.7-15.9,0.9c-1.1-3.3-2-6.7-2.5-10.1c0-0.1-0.2-0.1-0.2,0c0.4,3.2,1.1,6.4,2.2,9.5
			c-0.1,0-0.1,0-0.2,0c-1.1,1-4.4,0.3-5.8,0.1c-1.9-0.2-3.8-0.5-5.8-0.8c0-0.1,0-0.1-0.1-0.1c-0.8-0.5-1.1-1.7-1.5-2.5
			c-0.5-1-0.9-2.1-1.3-3.2c-0.7-1.8-1.3-3.6-1.8-5.4c0,0,0-0.1,0-0.1c0,0-0.1,0-0.1,0c0,0,0,0,0,0c0.6,2.3,1.3,4.6,2.2,6.9
			c0.4,1.1,0.9,2.9,1.7,3.9c-1.2,0.6-3.3-0.2-4.5-0.4c-1.3-0.3-2.7-0.6-4-0.9c-0.5-1.4-1.2-2.9-1.8-4.3c-1.5-3.3-4.2-7.6-2.1-11.1
			c0.1-0.1-0.1-0.2-0.2-0.1c-1.5,2.3-0.8,5.1,0.2,7.5c1.4,3.5,3.1,6.8,4.3,10.3c0.5,1.5,0.9,3,1.3,4.5c0,0-0.1,0.1-0.1,0.1
			c0,0,0,0,0.1,0.1l0,0c1.4,5.6,1.9,11.3,1.7,17.1h-0.3c-0.2,0-0.4,0-0.6,0l-3,0.1c-4,0.1-8,0.2-11.9,0.3l0,0c0-0.1-0.2-0.2-0.3-0.2
			c-0.1,0-0.1,0.1-0.2,0.2c-0.6,1.6-1.4,3.1-2.3,4.5c-0.9,1.3-2.6,3.5-4.3,3.8c-0.9,0.1-0.8,0-1.4-0.6c-0.3-0.3-0.6-0.6-0.8-0.9
			c-0.6-0.7-1.3-1.4-1.9-2.1c-1.1-1.4-2-2.9-3.2-4.3c0.2-0.1,0-0.5-0.2-0.4c-3.4,1.1-6.9,1.2-10.4,1.1c-1.3,0-2.6-0.1-4-0.2
			s-2.6-0.1-4-0.2l0,0l-2.7-0.1c-7.2-0.4-14.4-0.8-21.7-1.3l-2.7-0.2h-0.1c0-0.1,0-0.1,0-0.2c-0.5-1.1-0.9-2.3-1.3-3.5
			c-0.8-2.3-1.5-4.5-2.1-6.8c-3.8-14.6-3.3-30.1,3.4-44c0-0.1,0-0.1,0-0.2c0.8-0.5,1.6-0.9,2.5-1.2c1.1-0.4,2.2-0.6,3.3-1.1
			c0.8,2.9,1.7,5.8,3.8,8c0.1,0.1,0.2,0.1,0.2,0c0.1,0,0.1-0.1,0-0.2c1.1-2.8,2.6-5.8,5.1-7.6c0.7,3.4,2.1,6.6,4,9.4
			c0.1,0.2,0.4,0,0.3-0.1c0.5-1.1,0.9-2.3,1.5-3.4c0.7-1.2,1.4-2.3,2.3-3.3c0,0,0,0,0-0.1c1.7,3.6,4.2,6.7,7.5,9c0,0,0.1,0,0.1,0
			c0.1,0.1,0.2,0,0.2,0c0,0,0-0.1,0-0.1c0.2-2.7,0.8-5.3,1.9-7.7c0.6,1.2,1.4,2.3,2.3,3.3c1,1.4,2.2,2.6,3.6,3.6c0,0,0.1,0,0.1,0
			c0,0.1,0.1,0.2,0.2,0.2c0.1,0,0.1,0,0.2-0.1c2.7-4.8,4.9-10.8,4-16.3c2.1,0.8,4.8,1.9,6.2,3.8c0,0,0.1,0.1,0.1,0.1l0,0
			c0,0,0.1,0,0.1,0c0,0,0,0,0,0l0,0l0,0c0,0,0-0.1,0-0.1c0.2-2.6-0.2-5.2-1.1-7.6c2-1.3,5.2-1.2,7.5-1.1c0.1,0,0.2-0.1,0.2-0.2
			c0,0,0,0,0,0c0,0,0-0.1,0-0.1c-0.4-2.6-1.3-5.1-2.5-7.4c0.7-0.3,1.3-0.7,2-1l0.5-0.2c0,0,0.1,0.1,0.1,0.1c2.3,0.1,4.6,0.2,6.8,0.3
			h0.1c12.6,0.3,25.2-1.3,37.3-4.8c14.4-4.2,27.4-12,39.2-21.2c6.6-5.2,12.4-11.3,17.1-18.2c2.1,3.7,4.6,7.2,6.3,11.1
			c1.6,3.9,2.9,8,3.8,12.2c0,0.1,0.1,0.1,0.1,0.1c-6.1,10-16.1,17.1-27.5,19.8c-1.8,0.4-3.9,0.3-5.6,1c-0.8,0.2-1.4,1-1.3,1.9
			c0,0,0,0,0.1,0l0,0c0.3,1.9,5.6,0.8,6.7,0.6c4-0.5,7.9-1.6,11.6-3.2c6.7-2.8,13-7.5,17.1-13.6
			C272.1,222.6,271.8,227.4,271.4,231.8L271.4,231.8z"/>
		<path class="st18" d="M105.9,183.5c0,0.1,0.1,0.1,0.1,0.1c0,0,0,0,0,0c2,1.6,4.3,2.9,6.8,3.8l0,0c0.2,0.1,0.7,0.4,0.9,0.1
			c0.2-0.3-0.1-0.5-0.2-0.8c0,0,0,0,0-0.1c0-4.2,0.1-8.3,0.1-12.5l0,0c0.1-0.8,0-1.6-0.3-2.3l0,0 M113.3,171.8L113.3,171.8
			c0-0.1-0.1-0.3-0.2-0.4l0,0c0,0,0-0.1-0.1-0.1c-0.6-1.1-1.7-1.9-2.9-1.9c-2.2-0.1-4,1.6-4.1,3.8c-0.2,1.4-0.2,2.8-0.2,4.2
			c0,2.1,0,4.1,0.1,6.1L113.3,171.8z M113.4,187.4c-0.1,0-0.2,0-0.2-0.1c0,0,0,0-0.1-0.1l0,0l-0.1-0.1c0,0-0.1,0-0.1,0c0,0,0,0,0,0
			c-2.3-1.1-4.6-2.3-6.7-3.7c0-1.4-0.1-2.7-0.1-4.1c0.1,1.9,1.2,3.5,2.9,4.4c1.6,0.8,3.5,0.1,4.2-1.5c0,0,0-0.1,0-0.1
			c0,1.5,0,3,0,4.5c0,0,0,0.1,0.1,0.1c0,0.1,0.1,0.2,0.1,0.2C113.5,187.1,113.8,187.4,113.4,187.4L113.4,187.4z M113.4,174.2
			C113.3,174.3,113.3,174.3,113.4,174.2c-0.1,2.6-0.1,5-0.1,7.5c0,0,0,0,0,0.1c-0.7,2.4-3.7,2.6-5.3,1c-1.1-1.2-1.7-2.8-1.8-4.4
			v-0.3c0-1.9-0.2-4,0.4-5.8l0,0c0.1-0.2,0.2-0.4,0.3-0.6c0,0.2,0.1,0.4,0.3,0.5c0.2,0.2,0.5,0.1,0.7-0.1c0,1.9,0.5,4.2,2.3,4.7
			c2.6,0.7,2.9-2.7,3.1-4.6C113.3,172.7,113.4,173.5,113.4,174.2L113.4,174.2z M110.5,169.7c1,0.2,1.9,0.9,2.4,1.9
			c0,0.9-0.1,1.8-0.3,2.8c-0.3,1.4-1.7,2.9-3.2,1.8c-1.6-1.1-1.7-4.2-1.3-5.8c0,0,0,0,0-0.1C108.8,169.7,109.7,169.5,110.5,169.7
			L110.5,169.7z M108,170.2c-0.1,0.5-0.1,1-0.2,1.5c0,0,0,0-0.1,0c-0.2,0.2-0.4,0.3-0.7,0.1c-0.1-0.1-0.2-0.3-0.2-0.5
			C107.2,170.9,107.5,170.5,108,170.2L108,170.2z"/>
		<path class="st18" d="M141,177c0,0,0-0.1,0-0.1l0,0c-0.3-3.1-3-5.3-6-5.3c-3.2,0.1-5.8,2.5-6.2,5.7c-0.1,1.7-0.2,3.3-0.1,5
			c0,2.2,0,4.5,0.1,6.7c0,0,0,0,0,0.1c-0.1,0.2-0.3,0.4-0.2,0.6c0.1,0.2,0.5,0.3,0.7,0.4c0,0,0.1,0,0.1,0c3.8,0.1,7.6-0.2,11.3-1
			c0.1,0,0.1-0.1,0.1-0.2l0,0c0.2-1.8,0.3-3.5,0.2-5.3C141,181.4,141.1,179.2,141,177L141,177z M140.7,177.7c0,1.1,0,2.2,0,3.3
			c0,0-0.1,0-0.1,0c0,0,0,0,0,0.1c0.2,3-1.7,5.8-4.6,6.7c-2.9,0.8-6.5-0.6-7.1-3.8c0-2.2,0-4.4-0.1-6.7c0.2-0.7,0.4-1.5,0.8-2.1
			c0.1,1.3,0.4,2.9,1.4,3.8c1,0.9,2.2,1.2,3.5,1.1c2.1-0.5,2.7-3.2,2.7-5.5c0.2,0.4,0.7,0.6,1.1,0.5c0.6-0.1,1-0.6,1.1-1.2
			c0.8,1.1,1.3,2.3,1.4,3.7C140.7,177.7,140.7,177.7,140.7,177.7z M139.1,173.7c0.1,0.6-0.3,1.1-0.8,1.3c-0.5,0.1-1-0.2-1.1-0.7
			c0-0.7-0.1-1.3-0.2-2C137.8,172.5,138.5,173,139.1,173.7L139.1,173.7z M134.6,171.9c0.7,0,1.4,0.1,2.1,0.3l0,0
			c0.4,2,0.5,5-0.9,6.7c-0.7,0.9-1.8,1.3-2.9,1c-0.7-0.2-1.3-0.5-1.8-1c-1-1-1.3-2.5-1.4-3.9C130.7,173.1,132.6,171.9,134.6,171.9
			L134.6,171.9z M140.6,188.6c-3.7,0.8-7.5,1.2-11.2,1.1l0,0c-0.1,0-0.3,0-0.4-0.1c-0.2-0.1,0-0.3,0-0.5c0-0.1,0-0.1,0-0.2
			c0,0,0-0.1,0-0.1c0-1.5,0-3,0-4.5c0.7,2.7,3.7,4,6.3,3.6c3-0.5,5.3-2.9,5.5-6C140.9,184.3,140.9,186.5,140.6,188.6L140.6,188.6z"
			/>
		<path class="st18" d="M147.9,198.9c0.7-1,0.2-2.6-0.5-3.5c-0.9-1.1-2.4-0.6-3.5-0.1c-0.2,0.1-0.1,0.3,0.1,0.3
			c1-0.3,2.3-0.8,3.1,0.2c0.7,0.8,0.9,1.9,0.5,2.9c0,0.1,0,0.2,0.1,0.3C147.7,199,147.8,199,147.9,198.9z"/>
		<path class="st18" d="M129.9,165.8L129.9,165.8L129.9,165.8z"/>
		<path class="st18" d="M127.5,162.9c-0.1,0.1,0,0.3,0.1,0.2c0.3,1,0.5,2,0.5,3.1c0,0,0,0.1,0,0.1c0,0,0,0.1,0,0s0,0,0,0h0.1
			c3.2-1.2,7.9-3.6,10.6-0.1c0.1,0.2,0.4,0,0.3-0.2c-0.2-0.3-0.5-0.7-0.8-0.9c0,0,0-0.1,0-0.1C137.4,159.7,130.9,161.2,127.5,162.9z
			 M128.4,166.1c0.3-0.9-0.3-2.2-0.7-3c3.3-1.5,8.9-3,10.3,1.8C135.3,163.1,130.7,164.2,128.4,166.1z"/>
		<path class="st18" d="M113.7,162C113.7,162,113.7,162,113.7,162c-2.2-0.6-6-1.5-6.7,1.7c0,0.1,0,0.1,0.1,0.2
			c-0.4,0.4-0.6,0.8-0.7,1.4c0,0.2,0.3,0.2,0.3,0c0.7-3.3,4.6-0.4,6.5-0.1c0,0.1,0,0.1,0,0.2c0,0.1,0.1,0.1,0.1,0.1
			c0.1,0,0.1-0.1,0.1-0.1c0-1.1,0.1-2.3,0.3-3.4C113.8,161.9,113.8,161.9,113.7,162C113.7,162,113.7,162,113.7,162z M113.3,165
			c-1.4-0.6-4.4-2.2-5.9-1.3c0.7-2.9,4.3-2,6.3-1.5C113.4,163.1,113.3,164,113.3,165z"/>
		<g>
			<defs>
				<path id="SVGID_1_" d="M28.5,11.7c0.3,0.5,0.5,1,0.7,1.6c0.2,0.6,0.3,1.3,0.3,2c0.1,1.1-0.2,2.1-0.9,2.9
					c-0.6,0.6-1.5,0.9-2.4,0.9H15.1v6h11.5c0.3,0.5,0.6,1,0.7,1.5c0.2,0.6,0.3,1.3,0.3,2c0.1,1-0.2,2.1-0.9,2.9
					c-0.6,0.6-1.5,0.9-2.4,0.9h-9.2v11.1c-0.6,0.1-1.2,0.2-1.8,0.3c-0.8,0.1-1.6,0.2-2.4,0.2c-0.7,0-1.4-0.1-2.1-0.2
					c-0.6-0.1-1.1-0.4-1.6-0.7c-0.4-0.3-0.8-0.8-0.9-1.3C6.1,41,6,40.2,6,39.5V16.6C5.9,15.2,6.4,14,7.3,13c1-0.9,2.3-1.4,3.6-1.3
					L28.5,11.7z"/>
			</defs>
			<clipPath id="SVGID_2_">
				<use xlink:href="#SVGID_1_"  style="overflow:visible;"/>
			</clipPath>
			<g class="st19">
				<rect x="1" y="6.7" class="st20" width="33.4" height="42.2"/>
			</g>
		</g>
		<g>
			<defs>
				<path id="SVGID_3_" d="M32.1,27.6c0-2.5,0.4-5,1.3-7.3c0.8-2,2-3.8,3.6-5.3c1.5-1.4,3.3-2.5,5.3-3.2c4.2-1.5,8.9-1.5,13.1,0
					c2,0.7,3.8,1.8,5.3,3.2c1.6,1.5,2.8,3.3,3.5,5.3c0.9,2.3,1.3,4.8,1.3,7.3c0,2.5-0.4,5-1.3,7.3c-0.8,2-2,3.8-3.5,5.3
					c-1.5,1.4-3.3,2.5-5.3,3.2c-2.1,0.8-4.4,1.1-6.6,1.1c-2.3,0-4.5-0.4-6.6-1.1c-2-0.7-3.8-1.8-5.3-3.3c-1.5-1.5-2.7-3.3-3.5-5.3
					C32.6,32.5,32.1,30,32.1,27.6 M41.7,27.6c0,3.2,0.7,5.6,2,7.2c1.3,1.6,3.2,2.4,5.2,2.4c2,0.1,4-0.8,5.3-2.4
					c1.2-1.6,1.8-3.9,1.8-7.1c0-3.2-0.6-5.6-1.9-7.1c-1.3-1.6-3.2-2.5-5.2-2.4c-2-0.1-4,0.8-5.2,2.4C42.3,22,41.6,24.4,41.7,27.6"/>
			</defs>
			<clipPath id="SVGID_4_">
				<use xlink:href="#SVGID_3_"  style="overflow:visible;"/>
			</clipPath>
			<g class="st21">
				<rect x="27.1" y="5.7" class="st20" width="43.4" height="43.9"/>
			</g>
		</g>
		<g>
			<defs>
				<path id="SVGID_5_" d="M69.2,27.6c0-2.5,0.4-5,1.3-7.3c1.5-4,4.8-7.1,8.8-8.5c4.2-1.5,8.9-1.5,13.1,0c2,0.7,3.8,1.8,5.3,3.2
					c1.6,1.5,2.8,3.3,3.6,5.3c0.9,2.3,1.3,4.8,1.3,7.3c0,2.5-0.4,5-1.3,7.3c-0.8,2-2,3.8-3.5,5.3c-1.5,1.4-3.3,2.5-5.3,3.2
					c-2.1,0.8-4.4,1.1-6.6,1.1c-2.3,0-4.5-0.4-6.6-1.1c-2-0.7-3.8-1.8-5.3-3.3c-1.5-1.5-2.7-3.3-3.5-5.3
					C69.6,32.5,69.1,30,69.2,27.6 M78.7,27.6c0,3.2,0.7,5.6,2,7.2c2.6,2.9,7,3.2,9.9,0.6c0.2-0.2,0.4-0.4,0.6-0.6c1.3-1.6,2-4,2-7.2
					c0-3.2-0.7-5.5-1.9-7.1C90,18.9,88,18,86,18.1c-2-0.1-4,0.8-5.2,2.4C79.4,22,78.8,24.4,78.7,27.6"/>
			</defs>
			<clipPath id="SVGID_6_">
				<use xlink:href="#SVGID_5_"  style="overflow:visible;"/>
			</clipPath>
			<g class="st22">
				<rect x="64.2" y="5.7" class="st20" width="43.4" height="43.9"/>
			</g>
		</g>
		<g>
			<defs>
				<path id="SVGID_7_" d="M105.4,19c-0.3-0.5-0.5-1-0.7-1.6c-0.2-0.7-0.3-1.4-0.3-2.1c-0.1-1.1,0.2-2.1,0.9-3
					c0.6-0.6,1.5-0.9,2.4-0.9h23c0.3,0.5,0.5,1,0.7,1.6c0.2,0.7,0.3,1.4,0.3,2.1c0.1,1.1-0.2,2.1-0.9,3c-0.6,0.6-1.5,0.9-2.4,0.9
					h-5.8v24.4c-0.6,0.1-1.2,0.2-1.8,0.3c-0.8,0.1-1.6,0.2-2.4,0.2c-0.7,0-1.4-0.1-2.1-0.2c-0.6-0.1-1.1-0.3-1.6-0.7
					c-0.5-0.3-0.8-0.8-1-1.3c-0.2-0.7-0.3-1.5-0.3-2.2V19H105.4z"/>
			</defs>
			<clipPath id="SVGID_8_">
				<use xlink:href="#SVGID_7_"  style="overflow:visible;"/>
			</clipPath>
			<g class="st23">
				<rect x="99.4" y="6.5" class="st20" width="37.3" height="42.4"/>
			</g>
		</g>
		<g>
			<defs>
				<path id="SVGID_9_" d="M145.4,43.4c-0.6,0.1-1.2,0.2-1.8,0.3c-0.8,0.1-1.6,0.2-2.4,0.2c-0.7,0-1.4-0.1-2.1-0.2
					c-0.6-0.1-1.1-0.3-1.6-0.7c-0.5-0.3-0.8-0.8-1-1.3c-0.2-0.7-0.3-1.5-0.3-2.2V14.7c0-0.6,0.2-1.3,0.6-1.7c0.5-0.5,1-0.8,1.7-1
					c1.3-0.5,2.7-0.8,4.1-0.9c1.5-0.2,3.1-0.3,4.6-0.3c4.8,0,8.5,1,11.1,3.1c2.6,2,4,5.2,3.9,8.4c0,1.6-0.3,3.2-0.8,4.7
					c-0.5,1.4-1.4,2.6-2.4,3.6c-1.2,1.1-2.6,1.9-4.1,2.3c-1.8,0.6-3.7,0.9-5.7,0.8h-3.7L145.4,43.4z M148.1,26.5
					c1.2,0.1,2.4-0.3,3.4-1c1.6-1.8,1.6-4.5-0.1-6.2c-1-0.8-2.3-1.2-3.6-1.1c-0.6,0-1,0-1.4,0c-0.4,0-0.8,0.1-1.1,0.1v8.2
					L148.1,26.5z"/>
			</defs>
			<clipPath id="SVGID_10_">
				<use xlink:href="#SVGID_9_"  style="overflow:visible;"/>
			</clipPath>
			<g class="st24">
				<rect x="131.2" y="5.8" class="st20" width="35.9" height="43.1"/>
			</g>
		</g>
		<g>
			<defs>
				<path id="SVGID_11_" d="M176,33.3v10.1c-0.6,0.1-1.2,0.2-1.8,0.3c-0.8,0.1-1.6,0.2-2.4,0.2c-0.7,0-1.4-0.1-2.1-0.2
					c-0.6-0.1-1.1-0.3-1.6-0.7c-0.4-0.3-0.7-0.8-0.9-1.3c-0.2-0.7-0.3-1.5-0.3-2.2V14.7c0-0.6,0.2-1.2,0.6-1.7c0.5-0.5,1-0.8,1.7-1
					c1.3-0.5,2.7-0.8,4.2-0.9c1.7-0.2,3.4-0.3,5.1-0.3c4.9,0,8.5,1,11,3c2.5,2,3.8,5.1,3.7,8.3c0.1,2-0.5,4-1.7,5.6
					c-1,1.5-2.4,2.7-4,3.6c1.3,1.7,2.5,3.3,3.7,4.9c1.1,1.3,2,2.7,2.9,4.1c-0.3,1.1-1,2.1-1.9,2.8c-0.9,0.7-2,1-3.1,1
					c-0.7,0-1.4-0.1-2-0.3c-0.5-0.2-1-0.4-1.5-0.7c-0.4-0.3-0.8-0.7-1.2-1.2c-0.4-0.5-0.7-1-1-1.5l-4.4-7.1L176,33.3z M179.3,26.3
					c1.1,0.1,2.3-0.3,3.2-1c0.8-0.8,1.2-1.9,1.2-3c0.1-1.1-0.4-2.3-1.3-3c-1.2-0.8-2.6-1.1-4.1-1c-0.4,0-0.8,0-1.3,0.1
					c-0.3,0-0.7,0.1-1,0.1v7.9L179.3,26.3z"/>
			</defs>
			<clipPath id="SVGID_12_">
				<use xlink:href="#SVGID_11_"  style="overflow:visible;"/>
			</clipPath>
			<g class="st25">
				<rect x="161.8" y="5.8" class="st20" width="37.1" height="43.2"/>
			</g>
		</g>
		<g>
			<defs>
				<path id="SVGID_13_" d="M208.1,43.4c-0.6,0.1-1.2,0.2-1.8,0.3c-0.8,0.1-1.6,0.2-2.4,0.2c-0.7,0-1.4-0.1-2.1-0.2
					c-0.6-0.1-1.1-0.3-1.6-0.7c-0.4-0.3-0.8-0.8-0.9-1.3c-0.2-0.7-0.3-1.5-0.3-2.2V11.7c0.4-0.1,1-0.2,1.9-0.3
					c0.8-0.1,1.6-0.2,2.4-0.2c0.7,0,1.4,0.1,2.1,0.2c0.6,0.1,1.1,0.3,1.6,0.7c0.4,0.3,0.8,0.8,0.9,1.3c0.2,0.7,0.3,1.5,0.3,2.2V43.4
					z"/>
			</defs>
			<clipPath id="SVGID_14_">
				<use xlink:href="#SVGID_13_"  style="overflow:visible;"/>
			</clipPath>
			<g class="st26">
				<rect x="193.9" y="6.2" class="st20" width="19.2" height="42.7"/>
			</g>
		</g>
		<g>
			<defs>
				<path id="SVGID_15_" d="M243.9,42.5c-0.6,0.6-1.3,0.9-2.1,1.1c-1.1,0.3-2.2,0.4-3.3,0.4c-1.3,0-2.5-0.2-3.7-0.6
					c-1.3-0.5-2.3-1.5-2.9-2.8L226.6,30c-0.5-1.1-1-2.1-1.4-3.1s-0.9-2.1-1.4-3.4l-0.3,0c0.1,1.9,0.2,3.8,0.2,5.8s0,3.9,0,5.8v8.2
					c-0.6,0.1-1.2,0.2-1.8,0.3c-0.8,0.1-1.6,0.2-2.3,0.2c-0.7,0-1.4,0-2.1-0.2c-1.1-0.1-2-0.9-2.4-1.9c-0.2-0.7-0.3-1.4-0.3-2.1
					V13.3c0.6-0.8,1.4-1.3,2.3-1.6c1.1-0.4,2.2-0.5,3.3-0.5c1.3,0,2.5,0.2,3.7,0.6c1.3,0.5,2.3,1.5,2.8,2.8l5.3,10.6
					c0.5,1.1,1,2.1,1.4,3.1s0.9,2.1,1.4,3.3l0.3,0c-0.1-1.9-0.2-3.8-0.3-5.7s-0.1-3.8-0.1-5.7v-8.5c0.6-0.1,1.2-0.2,1.8-0.3
					c0.8-0.1,1.6-0.1,2.3-0.1c1.2-0.1,2.5,0.2,3.5,0.8c0.8,0.5,1.2,1.7,1.2,3.4L243.9,42.5z"/>
			</defs>
			<clipPath id="SVGID_16_">
				<use xlink:href="#SVGID_15_"  style="overflow:visible;"/>
			</clipPath>
			<g class="st27">
				<rect x="209.9" y="6.2" class="st20" width="38.9" height="42.8"/>
			</g>
		</g>
		<g>
			<defs>
				<path id="SVGID_17_" d="M249.2,19c-0.3-0.5-0.5-1-0.7-1.6c-0.2-0.7-0.3-1.4-0.3-2.1c-0.1-1.1,0.2-2.1,0.9-3
					c0.6-0.6,1.5-0.9,2.4-0.9h23c0.3,0.5,0.5,1,0.7,1.6c0.2,0.7,0.3,1.4,0.3,2.1c0.1,1.1-0.2,2.1-0.9,3c-0.6,0.6-1.5,0.9-2.4,0.9
					h-5.9v24.4c-0.6,0.1-1.2,0.2-1.8,0.3c-0.8,0.1-1.6,0.2-2.5,0.2c-0.7,0-1.4-0.1-2.1-0.2c-0.6-0.1-1.1-0.3-1.6-0.7
					c-0.4-0.3-0.8-0.8-1-1.3c-0.2-0.7-0.3-1.5-0.3-2.2V19H249.2z"/>
			</defs>
			<clipPath id="SVGID_18_">
				<use xlink:href="#SVGID_17_"  style="overflow:visible;"/>
			</clipPath>
			<g class="st28">
				<rect x="243.2" y="6.5" class="st20" width="37.3" height="42.4"/>
			</g>
		</g>
		<g>
			<defs>
				<path id="SVGID_19_" d="M288.7,30.9c-1.5-0.5-3-1.1-4.2-1.6c-1.2-0.5-2.3-1.2-3.3-2c-0.9-0.8-1.6-1.7-2.1-2.8
					c-0.5-1.2-0.8-2.6-0.8-3.9c-0.1-2.8,1.2-5.5,3.5-7.2c2.3-1.8,5.5-2.7,9.7-2.7c1.4,0,2.8,0.1,4.2,0.3c1.2,0.2,2.3,0.5,3.3,1
					c0.9,0.4,1.6,1,2.2,1.7c0.5,0.7,0.8,1.5,0.8,2.4c0,0.8-0.2,1.6-0.6,2.4c-0.4,0.6-0.9,1.2-1.5,1.7c-1-0.6-2-1-3.1-1.3
					c-1.4-0.4-2.8-0.6-4.3-0.5c-1.2-0.1-2.4,0.1-3.5,0.7c-0.6,0.3-1.1,0.9-1.1,1.7c0,0.5,0.2,1,0.7,1.3c0.6,0.4,1.3,0.7,2.1,0.9
					l2.8,0.9c2.8,0.8,5.4,2.1,7.6,4c1.8,1.7,2.8,4.2,2.7,6.7c0.1,2.8-1.2,5.5-3.5,7.2c-2.4,1.8-5.8,2.8-10.4,2.8
					c-1.5,0-3-0.1-4.5-0.4c-1.3-0.2-2.5-0.6-3.6-1.1c-0.9-0.4-1.8-1.1-2.4-1.9c-0.6-0.7-0.9-1.7-0.9-2.6c0-1,0.3-1.9,0.9-2.6
					c0.5-0.7,1.2-1.2,2-1.7c1.1,0.8,2.3,1.5,3.6,2c1.5,0.6,3.1,0.9,4.7,0.9c1.3,0.1,2.5-0.2,3.6-0.8c0.6-0.4,1-1.1,1-1.9
					c0-0.6-0.3-1.3-0.8-1.6c-0.8-0.4-1.6-0.8-2.4-1.1L288.7,30.9z"/>
			</defs>
			<clipPath id="SVGID_20_">
				<use xlink:href="#SVGID_19_"  style="overflow:visible;"/>
			</clipPath>
			<g class="st29">
				<rect x="273.3" y="5.8" class="st20" width="35.4" height="43.7"/>
			</g>
		</g>
	</g>
</g>
</svg>
